<?xml version="1.0" encoding="UTF-8"?>
<svg width="24px" height="32px" viewBox="0 0 24 32" version="1.1" xmlns="http://www.w3.org/2000/svg" xmlns:xlink="http://www.w3.org/1999/xlink">
    <!-- Generator: Sketch 52.4 (67378) - http://www.bohemiancoding.com/sketch -->
    <title>clock</title>
    <desc>Created with Sketch.</desc>
    <g id="Symbols" stroke="none" stroke-width="1" fill="none" fill-rule="evenodd">
        <g id="Шапки/Шапка-1200" transform="translate(-299.000000, -18.000000)" fill-rule="nonzero">
            <g id="Шапка">
                <g id="Адрес" transform="translate(222.000000, 9.000000)">
                    <g id="clock" transform="translate(77.000000, 9.000000)">
                        <path d="M23.2727065,27.9272727 L22.6077506,27.9272727 L22.6077506,3.32465455 C22.6077506,2.95711169 22.3103377,2.6596987 21.9427948,2.6596987 C21.5752519,2.6596987 21.277839,2.95711169 21.277839,3.32465455 L21.277839,3.92521558 C19.7906494,2.25307013 16.8814753,0 11.9688312,0 C7.05618701,0 4.14701299,2.25307013 2.65976104,3.92521558 L2.65976104,3.32465455 C2.65976104,2.95711169 2.36234805,2.6596987 1.99480519,2.6596987 C1.62726234,2.6596987 1.32984935,2.95711169 1.32984935,3.32465455 L1.32984935,27.9272727 L0.664955844,27.9272727 C0.297412987,27.9272727 0,28.2246857 0,28.5922286 L0,31.2519896 C0,31.6194701 0.297412987,31.9168831 0.664955844,31.9168831 L23.2727688,31.9168831 C23.6403117,31.9168831 23.9377247,31.6194701 23.9377247,31.2519273 L23.9377247,28.5921662 C23.9376623,28.2246857 23.6402494,27.9272727 23.2727065,27.9272727 Z M2.65976104,6.15322597 C3.11557403,5.35324675 5.72141299,1.32984935 11.9688312,1.32984935 C18.2162494,1.32984935 20.8220883,5.35324675 21.2779013,6.15322597 L21.2779013,27.9272727 L17.2882909,27.9272727 L17.2882909,14.5874494 C18.1128312,13.4800831 18.6181403,12.1224935 18.6181403,10.6389818 C18.6182026,6.97271688 15.6350961,3.98961039 11.9688312,3.98961039 C8.30256623,3.98961039 5.31945974,6.97271688 5.31945974,10.6389818 C5.31945974,12.1224935 5.82483117,13.4800831 6.64930909,14.5874494 L6.64930909,27.9272727 L2.6596987,27.9272727 L2.6596987,6.15322597 L2.65976104,6.15322597 Z M11.3038753,21.3723429 C10.1598545,21.6696935 9.30907013,22.7017558 9.30907013,23.9376623 C9.30907013,25.4045299 10.5019013,26.5974234 11.9688312,26.5974234 C13.435761,26.5974234 14.6285922,25.4045922 14.6285922,23.9376623 C14.6285922,22.7016935 13.7778078,21.6696312 12.633787,21.3723429 L12.633787,17.2211532 C13.8761766,17.0954182 15.0125922,16.6405403 15.9584416,15.9244052 L15.9584416,27.9272727 L7.97922078,27.9272727 L7.97922078,15.9244052 C8.92507013,16.6404779 10.0615481,17.0953558 11.3038753,17.2210909 L11.3038753,21.3723429 Z M11.9688312,22.607813 C12.7019221,22.607813 13.2986805,23.2045714 13.2986805,23.9376623 C13.2986805,24.6707532 12.7019221,25.2675117 11.9688312,25.2675117 C11.2357403,25.2675117 10.6389818,24.6707532 10.6389818,23.9376623 C10.6389818,23.2045714 11.2357403,22.607813 11.9688312,22.607813 Z M11.9688312,15.9584416 C9.03571948,15.9584416 6.64937143,13.5720935 6.64937143,10.6389818 C6.64937143,7.70587013 9.03571948,5.31952208 11.9688312,5.31952208 C14.9019429,5.31952208 17.2882909,7.70587013 17.2882909,10.6389818 C17.2882909,13.5720935 14.9019429,15.9584416 11.9688312,15.9584416 Z M22.607813,30.5870338 L1.32984935,30.5870338 L1.32984935,29.2571844 L22.607813,29.2571844 L22.607813,30.5870338 Z" id="Shape" fill="#AA2935"></path>
                        <path d="M12.633787,10.3636364 L12.633787,7.31426494 C12.633787,6.94672208 12.336374,6.64930909 11.9688312,6.64930909 C11.6012883,6.64930909 11.3038753,6.94672208 11.3038753,7.31426494 L11.3038753,10.6389195 C11.3038753,10.8155221 11.3740052,10.9843948 11.4986805,11.1090701 L12.8285299,12.4389195 C12.9583792,12.5687688 13.128561,12.6337247 13.2986805,12.6337247 C13.4688,12.6337247 13.6389195,12.5687688 13.7688312,12.4389195 C14.0285922,12.1791584 14.0285922,11.7583792 13.7688312,11.4986805 L12.633787,10.3636364 Z" id="Shape" fill="#7D7878"></path>
                    </g>
                </g>
            </g>
        </g>
    </g>
</svg>