<?xml version="1.0" encoding="UTF-8"?>
<svg width="16px" height="24px" viewBox="0 0 16 24" version="1.1" xmlns="http://www.w3.org/2000/svg" xmlns:xlink="http://www.w3.org/1999/xlink">
    <!-- Generator: Sketch 52.4 (67378) - http://www.bohemiancoding.com/sketch -->
    <title>antique-clock</title>
    <desc>Created with Sketch.</desc>
    <g id="Страницы" stroke="none" stroke-width="1" fill="none" fill-rule="evenodd">
        <g id="Шоурум-1200" transform="translate(-466.000000, -1478.000000)" fill="#AA2935" fill-rule="nonzero">
            <g id="Контент" transform="translate(360.000000, 221.000000)">
                <g id="2" transform="translate(106.000000, 736.000000)">
                    <g id="antique-clock" transform="translate(0.000000, 521.000000)">
                        <path d="M8.37473224,1.83934426 L3.08660109,5.05818579 L3.08660109,22.6155628 L2.20874317,22.6155628 L2.20874317,23.9323716 L14.498929,23.9323716 L14.498929,22.6155628 L13.6210273,22.6155628 L13.6210273,5.05818579 L8.37473224,1.83934426 Z M7.68493989,4.18032787 L9.00179235,4.18032787 L9.00179235,5.49713661 L7.68493989,5.49713661 L7.68493989,4.18032787 Z M8.47925683,6.37499454 C10.2349727,6.37499454 11.656306,7.79632787 11.656306,9.55204372 C11.656306,11.3077596 10.2349727,12.7290929 8.47925683,12.7290929 C6.72349727,12.7290929 5.30216393,11.3077596 5.30216393,9.55204372 C5.30216393,7.79632787 6.72349727,6.37499454 8.47925683,6.37499454 Z M11.8862077,21.7377049 L4.84236066,21.7377049 L4.84236066,14.275847 L7.91488525,14.275847 L7.91488525,19.0414426 C7.49687432,19.2295519 7.22513661,19.6266667 7.22513661,20.1074098 C7.22513661,20.7553661 7.74767213,21.2779016 8.39562842,21.2779016 C9.0435847,21.2779016 9.56612022,20.7553661 9.56612022,20.1074098 C9.56612022,19.5848743 9.23169399,19.1668197 8.77184699,18.9996066 L8.77184699,14.275847 L11.8443716,14.275847 L11.8862077,21.7377049 Z" id="Shape"></path>
                        <path d="M0.0767650273,5.49713661 C0.160393443,5.62251366 0.306666667,5.70614208 0.452983607,5.70614208 C0.536612022,5.70614208 0.620196721,5.68520219 0.682885246,5.64340984 L8.35383607,0.961442623 L15.2931585,5.20450273 C15.5021639,5.3299235 15.7739016,5.26723497 15.8993224,5.05818579 C16.0246995,4.84918033 15.9620546,4.57744262 15.7530055,4.45206557 L8.58378142,0.0627322404 C8.43742077,-0.0208961749 8.27025137,-0.0208961749 8.12389071,0.0627322404 L0.223081967,4.89097268 C0.0140765027,5.01639344 -0.0486557377,5.28813115 0.0767650273,5.49713661 Z" id="Shape"></path>
                        <path d="M8.29110383,9.42662295 L7.53866667,10.1373115 C7.45503825,10.2208962 7.45503825,10.3672131 7.53866667,10.4508415 C7.58045902,10.4926339 7.64319126,10.5135738 7.70587978,10.5135738 C7.76861202,10.5135738 7.81040437,10.4926339 7.85219672,10.4508415 L8.75095082,9.59383607 L8.77189071,9.57293989 C8.77189071,9.552 8.7928306,9.552 8.7928306,9.53110383 C8.7928306,9.51020765 8.7928306,9.51020765 8.81372678,9.48931148 C8.81372678,9.4684153 8.81372678,9.4684153 8.81372678,9.44751913 C8.81372678,9.42662295 8.81372678,9.42657923 8.81372678,9.40572678 C8.81372678,9.38478689 8.81372678,9.38478689 8.81372678,9.36393443 C8.81372678,9.34299454 8.7928306,9.34299454 8.7928306,9.32209836 C8.7928306,9.30120219 8.7928306,9.30120219 8.77189071,9.28030601 L6.99523497,7.19016393 C6.91165027,7.10657923 6.78622951,7.08563934 6.68170492,7.16926776 C6.59812022,7.25285246 6.57718033,7.37827322 6.66080874,7.48279781 L8.29110383,9.42662295 Z" id="Shape"></path>
                    </g>
                </g>
            </g>
        </g>
    </g>
</svg>