<?xml version="1.0" encoding="UTF-8"?>
<svg width="42px" height="40px" viewBox="0 0 42 40" version="1.1" xmlns="http://www.w3.org/2000/svg" xmlns:xlink="http://www.w3.org/1999/xlink">
    <!-- Generator: Sketch 52.4 (67378) - http://www.bohemiancoding.com/sketch -->
    <title>brandenburg-gate</title>
    <desc>Created with Sketch.</desc>
    <g id="Symbols" stroke="none" stroke-width="1" fill="none" fill-rule="evenodd">
        <g id="Преимущества" transform="translate(-30.000000, 0.000000)" fill="#A4A3A3" fill-rule="nonzero">
            <g id="1">
                <g transform="translate(30.000000, 0.000000)">
                    <g id="brandenburg-gate">
                        <path d="M40.6021774,38.5806452 L39.9140323,38.5806452 L39.9140323,23.4408871 C40.293871,23.4408871 40.6021774,23.1325806 40.6021774,22.7527419 C40.6021774,22.3729032 40.293871,22.0645968 39.9140323,22.0645968 L35.785,22.0645968 C35.4051613,22.0645968 35.0968548,22.3729032 35.0968548,22.7527419 C35.0968548,23.1325806 35.4051613,23.4408871 35.785,23.4408871 L35.785,38.5806452 L33.7204839,38.5806452 L33.7204839,23.4408871 C34.1003226,23.4408871 34.408629,23.1325806 34.408629,22.7527419 C34.408629,22.3729032 34.1003226,22.0645968 33.7204839,22.0645968 L29.5914516,22.0645968 C29.2116129,22.0645968 28.9033065,22.3729032 28.9033065,22.7527419 C28.9033065,23.1325806 29.2116129,23.4408871 29.5914516,23.4408871 L29.5914516,38.5806452 L27.5269355,38.5806452 L27.5269355,23.4408871 C27.9067742,23.4408871 28.2150806,23.1325806 28.2150806,22.7527419 C28.2150806,22.3729032 27.9067742,22.0645968 27.5269355,22.0645968 L23.3979032,22.0645968 C23.0180645,22.0645968 22.7097581,22.3729032 22.7097581,22.7527419 C22.7097581,23.1325806 23.0180645,23.4408871 23.3979032,23.4408871 L23.3979032,38.5806452 L17.8925,38.5806452 L17.8925,23.4408871 C18.2723387,23.4408871 18.5806452,23.1325806 18.5806452,22.7527419 C18.5806452,22.3729032 18.2723387,22.0645968 17.8925,22.0645968 L13.7634677,22.0645968 C13.383629,22.0645968 13.0753226,22.3729032 13.0753226,22.7527419 C13.0753226,23.1325806 13.383629,23.4408871 13.7634677,23.4408871 L13.7634677,38.5806452 L11.6989516,38.5806452 L11.6989516,23.4408871 C12.0787903,23.4408871 12.3870968,23.1325806 12.3870968,22.7527419 C12.3870968,22.3729032 12.0787903,22.0645968 11.6989516,22.0645968 L7.56991935,22.0645968 C7.19008065,22.0645968 6.88177419,22.3729032 6.88177419,22.7527419 C6.88177419,23.1325806 7.19008065,23.4408871 7.56991935,23.4408871 L7.56991935,38.5806452 L5.50540323,38.5806452 L5.50540323,23.4408871 C5.88524194,23.4408871 6.19354839,23.1325806 6.19354839,22.7527419 C6.19354839,22.3729032 5.88524194,22.0645968 5.50540323,22.0645968 L1.37637097,22.0645968 C0.996532258,22.0645968 0.688225806,22.3729032 0.688225806,22.7527419 C0.688225806,23.1325806 0.996532258,23.4408871 1.37637097,23.4408871 L1.37637097,38.5806452 L0.688145161,38.5806452 C0.308306452,38.5806452 0,38.8889516 0,39.2687903 C0,39.648629 0.308306452,39.9569355 0.688145161,39.9569355 L40.6020968,39.9569355 C40.9819355,39.9569355 41.2902419,39.648629 41.2902419,39.2687903 C41.2902419,38.8889516 40.9820161,38.5806452 40.6021774,38.5806452 Z M4.12903226,38.5806452 L2.75266129,38.5806452 L2.75266129,23.4408871 L4.12903226,23.4408871 L4.12903226,38.5806452 Z M10.3225806,38.5806452 L8.94620968,38.5806452 L8.94620968,23.4408871 L10.3225806,23.4408871 L10.3225806,38.5806452 Z M16.516129,38.5806452 L15.1397581,38.5806452 L15.1397581,23.4408871 L16.516129,23.4408871 L16.516129,38.5806452 Z M26.1505645,38.5806452 L24.7741935,38.5806452 L24.7741935,23.4408871 L26.1505645,23.4408871 L26.1505645,38.5806452 Z M32.3441129,38.5806452 L30.9677419,38.5806452 L30.9677419,23.4408871 L32.3441129,23.4408871 L32.3441129,38.5806452 Z M38.5376613,38.5806452 L37.1612903,38.5806452 L37.1612903,23.4408871 L38.5376613,23.4408871 L38.5376613,38.5806452 Z" id="Shape"></path>
                        <path d="M40.6021774,15.1828226 L27.5268548,15.1828226 L27.5268548,13.8064516 L38.5375806,13.8064516 C38.5375806,14.1862903 38.8458871,14.4945968 39.2257258,14.4945968 C39.6055645,14.4945968 39.913871,14.1862903 39.913871,13.8064516 L40.6020161,13.8064516 C40.9818548,13.8064516 41.2901613,13.4981452 41.2901613,13.1183065 C41.2901613,12.7384677 40.9818548,12.4301613 40.6020161,12.4301613 L27.5268548,12.4301613 L27.5268548,11.0537903 L28.9032258,11.0537903 C29.2830645,11.0537903 29.591371,10.7454839 29.591371,10.3656452 C29.591371,9.98580645 29.2830645,9.67741935 28.9032258,9.67741935 L28.2150806,9.67741935 L28.2150806,7.61290323 C28.2150806,6.47467742 27.2887903,5.5483871 26.1505645,5.5483871 C25.0123387,5.5483871 24.0860484,6.47467742 24.0860484,7.61290323 L24.0860484,9.67741935 L22.7096774,9.67741935 L22.7096774,7.61290323 C22.7096774,6.71693548 22.1329839,5.96056452 21.3333065,5.675 L21.3333065,4.86024194 C21.7131452,4.86024194 22.0214516,4.55193548 22.0214516,4.17209677 C22.0214516,3.79225806 21.7131452,3.48395161 21.3333065,3.48395161 L21.3333065,3.39241935 C22.6483871,3.04419355 23.2945968,1.78895161 23.3255645,1.72701613 C23.4941935,1.3891129 23.3572581,0.979677419 23.0207258,0.808306452 C22.6814516,0.635564516 22.2699194,0.771854839 22.0958065,1.10766129 C22.0923387,1.11451613 21.8212097,1.61693548 21.3333065,1.9066129 L21.3333065,0.731209677 C21.3333065,0.351370968 21.025,0.0430645161 20.6451613,0.0430645161 C20.2653226,0.0430645161 19.9570161,0.351370968 19.9570161,0.731209677 L19.9570161,1.9058871 C19.4739516,1.61959677 19.2027419,1.1241129 19.1945161,1.10758065 C19.023871,0.770403226 18.6123387,0.634112903 18.2730645,0.803387097 C17.9330645,0.974032258 17.7947581,1.38693548 17.9647581,1.72693548 C17.9957258,1.78887097 18.6419355,3.0441129 19.9570161,3.39233871 L19.9570161,3.48387097 C19.5771774,3.48387097 19.268871,3.79217742 19.268871,4.17201613 C19.268871,4.55185484 19.5771774,4.86016129 19.9570161,4.86016129 L19.9570161,5.675 C19.1573387,5.96056452 18.5806452,6.71693548 18.5806452,7.61290323 L18.5806452,9.67741935 L17.2042742,9.67741935 L17.2042742,7.61290323 C17.2042742,6.47467742 16.2779839,5.5483871 15.1397581,5.5483871 C14.0015323,5.5483871 13.0752419,6.47467742 13.0752419,7.61290323 L13.0752419,9.67741935 L12.3870968,9.67741935 C12.0072581,9.67741935 11.6989516,9.98572581 11.6989516,10.3655645 C11.6989516,10.7454032 12.0072581,11.0537097 12.3870968,11.0537097 L13.7634677,11.0537097 L13.7634677,12.4300806 L0.688145161,12.4300806 C0.308306452,12.4300806 0,12.7383871 0,13.1182258 C0,13.4980645 0.308306452,13.806371 0.688145161,13.806371 L1.37629032,13.806371 C1.37629032,14.1862097 1.68459677,14.4945161 2.06443548,14.4945161 C2.44427419,14.4945161 2.75258065,14.1862097 2.75258065,13.806371 L13.7633065,13.806371 L13.7633065,15.1827419 L0.688145161,15.1827419 C0.308306452,15.1828226 0,15.491129 0,15.8709677 C0,16.2508065 0.308306452,16.5591129 0.688145161,16.5591129 L1.37629032,16.5591129 L1.37629032,20 C1.37629032,20.3798387 1.68459677,20.6881452 2.06443548,20.6881452 L39.2257258,20.6881452 C39.6055645,20.6881452 39.913871,20.3798387 39.913871,20 L39.913871,16.5591129 L40.6020161,16.5591129 C40.9818548,16.5591129 41.2901613,16.2508065 41.2901613,15.8709677 C41.2901613,15.491129 40.9820161,15.1828226 40.6021774,15.1828226 Z M25.4623387,7.61290323 C25.4623387,7.23370968 25.7712903,6.92475806 26.1504839,6.92475806 C26.5296774,6.92475806 26.838629,7.23370968 26.838629,7.61290323 L26.838629,9.67741935 L25.4622581,9.67741935 L25.4622581,7.61290323 L25.4623387,7.61290323 Z M19.9570161,7.61290323 C19.9570161,7.23370968 20.2659677,6.92475806 20.6451613,6.92475806 C21.0243548,6.92475806 21.3333065,7.23370968 21.3333065,7.61290323 L21.3333065,9.67741935 L19.9569355,9.67741935 L19.9569355,7.61290323 L19.9570161,7.61290323 Z M26.1505645,11.0537903 L26.1505645,15.1828226 L15.1397581,15.1828226 L15.1397581,11.0537903 L26.1505645,11.0537903 Z M14.4516129,7.61290323 C14.4516129,7.23370968 14.7605645,6.92475806 15.1397581,6.92475806 C15.5189516,6.92475806 15.8279032,7.23370968 15.8279032,7.61290323 L15.8279032,9.67741935 L14.4516129,9.67741935 L14.4516129,7.61290323 Z M38.5376613,19.3118548 L2.75266129,19.3118548 L2.75266129,16.5591935 L5.50532258,16.5591935 L5.50532258,17.9354839 C5.50532258,18.3153226 5.81362903,18.623629 6.19346774,18.623629 C6.57330645,18.623629 6.8816129,18.3153226 6.8816129,17.9354839 L6.8816129,16.5591129 L9.63427419,16.5591129 L9.63427419,17.9354839 C9.63427419,18.3153226 9.94258065,18.623629 10.3224194,18.623629 C10.7022581,18.623629 11.0105645,18.3153226 11.0105645,17.9354839 L11.0105645,16.5591129 L13.7632258,16.5591129 L13.7632258,17.9354839 C13.7632258,18.3153226 14.0715323,18.623629 14.451371,18.623629 C14.8312097,18.623629 15.1395161,18.3153226 15.1395161,17.9354839 L15.1395161,16.5591129 L17.8921774,16.5591129 L17.8921774,17.9354839 C17.8921774,18.3153226 18.2004839,18.623629 18.5803226,18.623629 C18.9601613,18.623629 19.2684677,18.3153226 19.2684677,17.9354839 L19.2684677,16.5591129 L22.021129,16.5591129 L22.021129,17.9354839 C22.021129,18.3153226 22.3294355,18.623629 22.7092742,18.623629 C23.0891129,18.623629 23.3974194,18.3153226 23.3974194,17.9354839 L23.3974194,16.5591129 L26.1500806,16.5591129 L26.1500806,17.9354839 C26.1500806,18.3153226 26.4583871,18.623629 26.8382258,18.623629 C27.2180645,18.623629 27.526371,18.3153226 27.526371,17.9354839 L27.526371,16.5591129 L30.2790323,16.5591129 L30.2790323,17.9354839 C30.2790323,18.3153226 30.5873387,18.623629 30.9671774,18.623629 C31.3470161,18.623629 31.6553226,18.3153226 31.6553226,17.9354839 L31.6553226,16.5591129 L34.4079839,16.5591129 L34.4079839,17.9354839 C34.4079839,18.3153226 34.7162903,18.623629 35.096129,18.623629 C35.4759677,18.623629 35.7842742,18.3153226 35.7842742,17.9354839 L35.7842742,16.5591129 L38.5369355,16.5591129 L38.5369355,19.3118548 L38.5376613,19.3118548 Z" id="Shape"></path>
                    </g>
                </g>
            </g>
        </g>
    </g>
</svg>