<?xml version="1.0" encoding="UTF-8"?>
<svg width="26px" height="33px" viewBox="0 0 26 33" version="1.1" xmlns="http://www.w3.org/2000/svg" xmlns:xlink="http://www.w3.org/1999/xlink">
    <!-- Generator: Sketch 52.4 (67378) - http://www.bohemiancoding.com/sketch -->
    <title>cart</title>
    <desc>Created with Sketch.</desc>
    <g id="Symbols" stroke="none" stroke-width="1" fill="none" fill-rule="evenodd">
        <g id="Корзина-полная" transform="translate(0.000000, -16.000000)" fill="#000000" fill-rule="nonzero">
            <g id="Корзина">
                <g id="Иконка" transform="translate(0.000000, 16.000000)">
                    <path d="M25.9767164,28.0528358 L24.1140299,7.10537313 C24.0752239,6.66298507 23.7026866,6.32925373 23.2602985,6.32925373 L19.3952239,6.32925373 C19.3641791,2.83671642 16.5158209,0.011641791 13.0232836,0.011641791 C9.53074627,0.011641791 6.68238806,2.83671642 6.65134328,6.32925373 L2.78626866,6.32925373 C2.3438806,6.32925373 1.97134328,6.67074627 1.93253731,7.10537313 L0.0698507463,28.0528358 C0.0698507463,28.0761194 0.0698507463,28.099403 0.0698507463,28.1304478 C0.0698507463,30.4898507 2.23522388,32.4146269 4.90507463,32.4146269 L21.1492537,32.4146269 C23.8113433,32.4146269 25.9844776,30.4976119 25.9844776,28.1304478 C25.9844776,28.099403 25.9844776,28.0761194 25.9767164,28.0528358 Z M13.0310448,1.71910448 C15.5844776,1.71910448 17.6644776,3.78358209 17.6955224,6.32925373 L8.35880597,6.32925373 C8.38985075,3.78358209 10.4698507,1.71910448 13.0310448,1.71910448 Z M21.1492537,30.699403 L4.90507463,30.699403 C3.19761194,30.699403 1.80059701,29.5662687 1.77731343,28.1614925 L3.56238806,8.03671642 L6.64358209,8.03671642 L6.64358209,10.7997015 C6.64358209,11.2731343 7.0238806,11.6534328 7.49731343,11.6534328 C7.97074627,11.6534328 8.35104478,11.2731343 8.35104478,10.7997015 L8.35104478,8.03671642 L17.6877612,8.03671642 L17.6877612,10.7997015 C17.6877612,11.2731343 18.0680597,11.6534328 18.5414925,11.6534328 C19.0149254,11.6534328 19.3952239,11.2731343 19.3952239,10.7997015 L19.3952239,8.03671642 L22.4764179,8.03671642 L24.2614925,28.1614925 C24.2537313,29.5662687 22.8567164,30.699403 21.1492537,30.699403 Z" id="cart"></path>
                </g>
            </g>
        </g>
    </g>
</svg>