<?xml version="1.0" encoding="UTF-8"?>
<svg width="30px" height="40px" viewBox="0 0 30 40" version="1.1" xmlns="http://www.w3.org/2000/svg" xmlns:xlink="http://www.w3.org/1999/xlink">
    <!-- Generator: Sketch 52.4 (67378) - http://www.bohemiancoding.com/sketch -->
    <title>clock</title>
    <desc>Created with Sketch.</desc>
    <g id="Symbols" stroke="none" stroke-width="1" fill="none" fill-rule="evenodd">
        <g id="Преимущества" transform="translate(-330.000000, 0.000000)" fill="#A4A3A3" fill-rule="nonzero">
            <g id="2">
                <g transform="translate(330.000000, 0.000000)">
                    <g id="clock">
                        <path d="M29.0908831,34.9090909 L28.2596883,34.9090909 L28.2596883,4.15581818 C28.2596883,3.69638961 27.8879221,3.32462338 27.4284935,3.32462338 C26.9690649,3.32462338 26.5972987,3.69638961 26.5972987,4.15581818 L26.5972987,4.90651948 C24.7383117,2.81633766 21.1018442,0 14.961039,0 C8.82023377,0 5.18376623,2.81633766 3.3247013,4.90651948 L3.3247013,4.15581818 C3.3247013,3.69638961 2.95293506,3.32462338 2.49350649,3.32462338 C2.03407792,3.32462338 1.66231169,3.69638961 1.66231169,4.15581818 L1.66231169,34.9090909 L0.831194805,34.9090909 C0.371766234,34.9090909 0,35.2808571 0,35.7402857 L0,39.064987 C0,39.5243377 0.371766234,39.8961039 0.831194805,39.8961039 L29.090961,39.8961039 C29.5503896,39.8961039 29.9221558,39.5243377 29.9221558,39.0649091 L29.9221558,35.7402078 C29.9220779,35.2808571 29.5503117,34.9090909 29.0908831,34.9090909 Z M3.3247013,7.69153247 C3.89446753,6.69155844 7.15176623,1.66231169 14.961039,1.66231169 C22.7703117,1.66231169 26.0276104,6.69155844 26.5973766,7.69153247 L26.5973766,34.9090909 L21.6103636,34.9090909 L21.6103636,18.2343117 C22.641039,16.8501039 23.2726753,15.1531169 23.2726753,13.2987273 C23.2727532,8.7158961 19.5438701,4.98701299 14.961039,4.98701299 C10.3782078,4.98701299 6.64932468,8.7158961 6.64932468,13.2987273 C6.64932468,15.1531169 7.28103896,16.8501039 8.31163636,18.2343117 L8.31163636,34.9090909 L3.32462338,34.9090909 L3.32462338,7.69153247 L3.3247013,7.69153247 Z M14.1298442,26.7154286 C12.6998182,27.0871169 11.6363377,28.3771948 11.6363377,29.9220779 C11.6363377,31.7556623 13.1273766,33.2467792 14.961039,33.2467792 C16.7947013,33.2467792 18.2857403,31.7557403 18.2857403,29.9220779 C18.2857403,28.3771169 17.2222597,27.087039 15.7922338,26.7154286 L15.7922338,21.5264416 C17.3452208,21.3692727 18.7657403,20.8006753 19.9480519,19.9055065 L19.9480519,34.9090909 L9.97402597,34.9090909 L9.97402597,19.9055065 C11.1563377,20.8005974 12.5769351,21.3691948 14.1298442,21.5263636 L14.1298442,26.7154286 Z M14.961039,28.2597662 C15.8774026,28.2597662 16.6233506,29.0057143 16.6233506,29.9220779 C16.6233506,30.8384416 15.8774026,31.5843896 14.961039,31.5843896 C14.0446753,31.5843896 13.2987273,30.8384416 13.2987273,29.9220779 C13.2987273,29.0057143 14.0446753,28.2597662 14.961039,28.2597662 Z M14.961039,19.9480519 C11.2946494,19.9480519 8.31171429,16.9651169 8.31171429,13.2987273 C8.31171429,9.63233766 11.2946494,6.6494026 14.961039,6.6494026 C18.6274286,6.6494026 21.6103636,9.63233766 21.6103636,13.2987273 C21.6103636,16.9651169 18.6274286,19.9480519 14.961039,19.9480519 Z M28.2597662,38.2337922 L1.66231169,38.2337922 L1.66231169,36.5714805 L28.2597662,36.5714805 L28.2597662,38.2337922 Z" id="Shape"></path>
                        <path d="M15.7922338,12.9545455 L15.7922338,9.14283117 C15.7922338,8.6834026 15.4204675,8.31163636 14.961039,8.31163636 C14.5016104,8.31163636 14.1298442,8.6834026 14.1298442,9.14283117 L14.1298442,13.2986494 C14.1298442,13.5194026 14.2175065,13.7304935 14.3733506,13.8863377 L16.0356623,15.5486494 C16.197974,15.710961 16.4107013,15.7921558 16.6233506,15.7921558 C16.836,15.7921558 17.0486494,15.710961 17.211039,15.5486494 C17.5357403,15.2239481 17.5357403,14.697974 17.211039,14.3733506 L15.7922338,12.9545455 Z" id="Shape"></path>
                    </g>
                </g>
            </g>
        </g>
    </g>
</svg>