<?xml version="1.0" encoding="UTF-8"?>
<svg width="15px" height="15px" viewBox="0 0 15 15" version="1.1" xmlns="http://www.w3.org/2000/svg" xmlns:xlink="http://www.w3.org/1999/xlink">
    <!-- Generator: Sketch 52.4 (67378) - http://www.bohemiancoding.com/sketch -->
    <title>close</title>
    <desc>Created with Sketch.</desc>
    <g id="Страницы" stroke="none" stroke-width="1" fill="none" fill-rule="evenodd">
        <g id="Главная-1200-окна" transform="translate(-1321.000000, -261.000000)" fill="#DADADA">
            <g id="Всплывающие-окна">
                <g id="Перезвоните" transform="translate(564.000000, 241.000000)">
                    <path d="M764.5,26.0596608 L770.261357,20.298304 C770.659095,19.9005653 771.303957,19.9005653 771.701696,20.298304 C772.099435,20.6960427 772.099435,21.3409045 771.701696,21.7386432 L765.940339,27.5 L771.701696,33.2613568 C772.099435,33.6590955 772.099435,34.3039573 771.701696,34.701696 C771.303957,35.0994347 770.659095,35.0994347 770.261357,34.701696 L764.5,28.9403392 L758.738643,34.701696 C758.340905,35.0994347 757.696043,35.0994347 757.298304,34.701696 C756.900565,34.3039573 756.900565,33.6590955 757.298304,33.2613568 L763.059661,27.5 L757.298304,21.7386432 C756.900565,21.3409045 756.900565,20.6960427 757.298304,20.298304 C757.696043,19.9005653 758.340905,19.9005653 758.738643,20.298304 L764.5,26.0596608 Z" id="close"></path>
                </g>
            </g>
        </g>
    </g>
</svg>