<?xml version="1.0" encoding="UTF-8"?>
<svg width="25px" height="20px" viewBox="0 0 25 20" version="1.1" xmlns="http://www.w3.org/2000/svg" xmlns:xlink="http://www.w3.org/1999/xlink">
    <!-- Generator: Sketch 52.4 (67378) - http://www.bohemiancoding.com/sketch -->
    <title>comment</title>
    <desc>Created with Sketch.</desc>
    <g id="Страницы" stroke="none" stroke-width="1" fill="none" fill-rule="evenodd">
        <g id="Главная-1200" transform="translate(-616.000000, -3035.000000)" fill="#FFFFFF" fill-rule="nonzero">
            <g id="О-компании" transform="translate(360.000000, 2463.000000)">
                <g id="Кнопка" transform="translate(73.000000, 556.000000)">
                    <g id="comment" transform="translate(183.000000, 16.000000)">
                        <path d="M0,19.4858333 L0,7.31343294 C0,3.54902667 3.07833053,0.485833333 6.86133914,0.485833333 L18.1370125,0.485833333 C21.9208453,0.485833333 25,3.54902667 25,7.31343294 L25,9.41297107 C25,13.1773773 21.9216695,16.2405707 18.1386609,16.2405707 L7.02040682,16.2405707 L0,19.4858333 Z M6.86133914,2.00799848 C3.92147166,2.00799848 1.52968714,4.38802179 1.52968714,7.31343294 L1.52968714,17.1000691 L6.6833152,14.7175854 L18.1386609,14.7175854 C21.0785283,14.7175854 23.4703129,12.3375621 23.4703129,9.41215094 L23.4703129,7.3126128 C23.4703129,4.38720166 21.0777042,2.00717835 18.1370125,2.00717835 L6.86133914,2.00717835 L6.86133914,2.00799848 Z M7.36574028,7.19779431 C8.16932054,7.19779431 8.8204266,7.84569866 8.8204266,8.64532744 C8.8204266,9.44495622 8.16932054,10.0928606 7.36574028,10.0928606 C6.56216002,10.0928606 5.91105397,9.44495622 5.91105397,8.64532744 C5.91105397,7.84569866 6.56216002,7.19779431 7.36574028,7.19779431 Z M17.6334355,7.19779431 C18.4370158,7.19779431 19.0881218,7.84569866 19.0881218,8.64532744 C19.0881218,9.44495622 18.4370158,10.0928606 17.6334355,10.0928606 C16.8298553,10.0928606 16.1787492,9.44495622 16.1787492,8.64532744 C16.1787492,7.84569866 16.8298553,7.19779431 17.6334355,7.19779431 Z M12.4987637,7.19779431 C13.302344,7.19779431 13.95345,7.84569866 13.95345,8.64532744 C13.95345,9.44495622 13.302344,10.0928606 12.4987637,10.0928606 C11.6951835,10.0928606 11.0440774,9.44495622 11.0440774,8.64532744 C11.0440774,7.84569866 11.6951835,7.19779431 12.4987637,7.19779431 Z" id="Shape"></path>
                    </g>
                </g>
            </g>
        </g>
    </g>
</svg>