<?xml version="1.0" encoding="UTF-8"?>
<svg width="22px" height="22px" viewBox="0 0 22 22" version="1.1" xmlns="http://www.w3.org/2000/svg" xmlns:xlink="http://www.w3.org/1999/xlink">
    <!-- Generator: Sketch 52.4 (67378) - http://www.bohemiancoding.com/sketch -->
    <title>compare</title>
    <desc>Created with Sketch.</desc>
    <g id="Страницы" stroke="none" stroke-width="1" fill="none" fill-rule="evenodd">
        <g id="Главная-1200" transform="translate(-712.000000, -1800.000000)" fill="#A4A3A3" fill-rule="nonzero">
            <g id="Популярные-модели" transform="translate(360.000000, 1213.000000)">
                <g id="2" transform="translate(326.000000, 145.000000)">
                    <g id="Сравнить" transform="translate(19.000000, 436.000000)">
                        <path d="M18.4669388,23.5146939 L18.4669388,8.41102041 L24.2991837,8.41102041 C24.2991837,8.41102041 21.1338776,17.0538776 21.1922449,17.1795918 C21.3763265,19.0697959 23.0195918,20.52 24.9726531,20.52 C26.9212245,20.52 28.515102,19.0742857 28.7440816,17.1885714 C28.8069388,17.0583673 25.6416327,8.41102041 25.6416327,8.41102041 L26.184898,8.41102041 L26.184898,7.44571429 L18.462449,7.44571429 L18.462449,6 L17.5240816,6 L17.5240816,7.44571429 L9.80163265,7.44571429 L9.80163265,8.41102041 L10.3493878,8.41102041 C10.3493878,8.41102041 7.2244898,16.9012245 7.2244898,17 C7.31877551,18.98 9.00244898,20.52 11.0138776,20.52 C13.0253061,20.52 14.7134694,18.9755102 14.8526531,17 C14.8526531,16.9416327 11.6873469,8.41102041 11.6873469,8.41102041 L17.5195918,8.41102041 L17.5195918,23.5102041 L7,23.5102041 L7,28 L29,28 L29,23.5146939 L18.4669388,23.5146939 Z M24.9726531,19.5591837 C23.6167347,19.5591837 22.4897959,18.6432653 22.1620408,17.4355102 L27.7787755,17.4355102 C27.4555102,18.6387755 26.3330612,19.5591837 24.9726531,19.5591837 Z M22.2608163,16.5195918 L24.9771429,9.28204082 L27.6440816,16.5195918 L22.2608163,16.5195918 Z M11.0273469,19.5591837 C9.67142857,19.5591837 8.5444898,18.6432653 8.21673469,17.4355102 L13.8334694,17.4355102 C13.5057143,18.6387755 12.3832653,19.5591837 11.0273469,19.5591837 Z M8.35591837,16.5195918 L11.0722449,9.28204082 L13.7391837,16.5195918 L8.35591837,16.5195918 Z M28.1110204,27.0840816 L7.93836735,27.0840816 L7.93836735,24.48 L28.1110204,24.48 L28.1110204,27.0840816 Z" id="compare"></path>
                    </g>
                </g>
            </g>
        </g>
    </g>
</svg>