<?xml version="1.0" encoding="UTF-8"?>
<svg width="30px" height="30px" viewBox="0 0 30 30" version="1.1" xmlns="http://www.w3.org/2000/svg" xmlns:xlink="http://www.w3.org/1999/xlink">
    <!-- Generator: Sketch 52.4 (67378) - http://www.bohemiancoding.com/sketch -->
    <title>delivery-address</title>
    <desc>Created with Sketch.</desc>
    <g id="Страницы" stroke="none" stroke-width="1" fill="none" fill-rule="evenodd">
        <g id="Товар-1200" transform="translate(-396.000000, -1336.000000)" fill="#AA2935" fill-rule="nonzero">
            <g id="Контент" transform="translate(360.000000, 271.000000)">
                <g id="Доставка" transform="translate(0.000000, 896.000000)">
                    <g id="2" transform="translate(36.000000, 169.000000)">
                        <g id="delivery-address">
                            <path d="M18.4795322,15.2046784 C18.1567526,15.2046784 17.8947368,15.4666941 17.8947368,15.7894737 C17.8947368,16.1122533 18.1567526,16.374269 18.4795322,16.374269 C18.8023118,16.374269 19.0643275,16.1122533 19.0643275,15.7894737 C19.0643275,15.4666941 18.8023118,15.2046784 18.4795322,15.2046784 Z" id="Shape"></path>
                            <path d="M5.97473503,21.6248629 L0.126781813,28.993284 C-0.0127923977,29.168951 -0.0392909357,29.4090369 0.0582511111,29.610974 C0.155793099,29.8131396 0.360471462,29.9415205 0.584795322,29.9415205 L29.3567251,29.9415205 C29.581049,29.9415205 29.7857274,29.8131396 29.8832694,29.610974 C29.9810398,29.4090369 29.9543129,29.168951 29.8147387,28.993284 L23.9667854,21.6248629 C23.8559942,21.4850603 23.6871802,21.4035088 23.5087719,21.4035088 L18.386102,21.4035088 L22.7595029,14.5440424 C23.7854075,13.005985 24.3274854,11.2123081 24.3274854,9.35672515 C24.3274854,4.1975055 20.1302083,0 14.9707602,0 C9.81131216,0 5.61403509,4.1975055 5.61403509,9.35672515 C5.61403509,11.2123081 6.15611292,13.0057566 7.18201754,14.5440424 L11.5554185,21.4035088 L6.43274854,21.4035088 C6.25434029,21.4035088 6.08575474,21.4850603 5.97473503,21.6248629 Z M3.79134684,26.2573099 L7.32730263,26.2573099 L5.3316886,28.7719298 L1.79550439,28.7719298 L3.79134684,26.2573099 Z M12.3012609,22.5730994 L13.9044225,25.0877193 L9.74872076,25.0877193 L11.7445632,22.5730994 L12.3012609,22.5730994 Z M17.640488,22.5730994 L18.1971857,22.5730994 L20.1927997,25.0877193 L16.0373264,25.0877193 L17.640488,22.5730994 Z M21.1211623,26.2573099 L23.1167763,28.7719298 L6.82474415,28.7719298 L8.82058661,26.2573099 L21.1211623,26.2573099 Z M24.6100603,28.7719298 L22.6142178,26.2573099 L26.150402,26.2573099 L28.1460161,28.7719298 L24.6100603,28.7719298 Z M25.2220395,25.0877193 L21.6860837,25.0877193 L19.6902412,22.5730994 L23.2264254,22.5730994 L25.2220395,25.0877193 Z M8.15835158,13.8998538 C7.25900035,12.5534539 6.78362573,10.9825018 6.78362573,9.35672515 C6.78362573,4.84237942 10.4564145,1.16959064 14.9707602,1.16959064 C19.485106,1.16959064 23.1578947,4.84237942 23.1578947,9.35672515 C23.1578947,10.9825018 22.6825201,12.5534539 21.7833973,13.8998538 C21.7808845,13.9032804 21.7788286,13.9067069 21.7765442,13.9101334 C21.3925439,14.5125182 15.2665844,24.1209795 14.9707602,24.584704 C14.2267453,23.4176261 8.92269737,15.0984558 8.16497626,13.9101334 C8.16292035,13.9067069 8.16063596,13.9032804 8.15835158,13.8998538 Z M10.2512792,22.5730994 L8.2556652,25.0877193 L4.71948099,25.0877193 L6.71532345,22.5730994 L10.2512792,22.5730994 Z" id="Shape"></path>
                            <path d="M14.9707602,15.2046784 C18.1811952,15.2046784 20.8187135,12.604852 20.8187135,9.35672515 C20.8187135,6.13212719 18.1953582,3.50877193 14.9707602,3.50877193 C11.7461623,3.50877193 9.12280702,6.13212719 9.12280702,9.35672515 C9.12280702,12.6057657 11.7612391,15.2046784 14.9707602,15.2046784 Z M14.9707602,4.67836257 C17.5504843,4.67836257 19.6491228,6.77700111 19.6491228,9.35672515 C19.6491228,11.960435 17.5335801,14.0350877 14.9707602,14.0350877 C12.4072551,14.0350877 10.2923977,11.960435 10.2923977,9.35672515 C10.2923977,6.77700111 12.3910362,4.67836257 14.9707602,4.67836257 Z" id="Shape"></path>
                            <path d="M17.4339821,17.2002924 C17.1575749,17.0335344 16.7980172,17.1226243 16.6312591,17.3992599 L14.4698008,20.985243 C14.3030427,21.2618787 14.3921327,21.621208 14.6687683,21.787966 C14.9465461,21.9554094 15.3054185,21.8644919 15.4714912,21.5889985 L17.6329496,18.0030153 C17.7997076,17.7263798 17.7106177,17.3670504 17.4339821,17.2002924 Z" id="Shape"></path>
                        </g>
                    </g>
                </g>
            </g>
        </g>
    </g>
</svg>