<?xml version="1.0" encoding="UTF-8"?>
<svg width="30px" height="21px" viewBox="0 0 30 21" version="1.1" xmlns="http://www.w3.org/2000/svg" xmlns:xlink="http://www.w3.org/1999/xlink">
    <!-- Generator: Sketch 52.4 (67378) - http://www.bohemiancoding.com/sketch -->
    <title>delivery-truck</title>
    <desc>Created with Sketch.</desc>
    <g id="Страницы" stroke="none" stroke-width="1" fill="none" fill-rule="evenodd">
        <g id="Товар-1200" transform="translate(-396.000000, -1241.000000)" fill="#AA2935" fill-rule="nonzero">
            <g id="Контент" transform="translate(360.000000, 271.000000)">
                <g id="Доставка" transform="translate(0.000000, 896.000000)">
                    <g id="1" transform="translate(36.000000, 73.000000)">
                        <g id="delivery-truck" transform="translate(0.000000, 1.000000)">
                            <path d="M24.4817073,14.9359756 C23.75,14.9359756 23.054878,15.222561 22.5304878,15.7408537 C22.0060976,16.2652439 21.7134146,16.9481707 21.7134146,17.679878 C21.7134146,18.4115854 22,19.0945122 22.5304878,19.6189024 C23.0609756,20.1371951 23.75,20.4237805 24.4817073,20.4237805 C25.9817073,20.4237805 27.2012195,19.1920732 27.2012195,17.679878 C27.2012195,16.1676829 25.9817073,14.9359756 24.4817073,14.9359756 Z M24.4817073,19.2042683 C23.6402439,19.2042683 22.9329268,18.5091463 22.9329268,17.679878 C22.9329268,16.8506098 23.6402439,16.1554878 24.4817073,16.1554878 C25.3109756,16.1554878 25.9817073,16.8384146 25.9817073,17.679878 C25.9817073,18.5213415 25.3109756,19.2042683 24.4817073,19.2042683 Z M25.1890244,5.79573171 C25.0792683,5.69207317 24.9329268,5.63719512 24.7804878,5.63719512 L21.652439,5.63719512 C21.3170732,5.63719512 21.0426829,5.91158537 21.0426829,6.24695122 L21.0426829,11.2469512 C21.0426829,11.5823171 21.3170732,11.8567073 21.652439,11.8567073 L26.6158537,11.8567073 C26.9512195,11.8567073 27.2256098,11.5823171 27.2256098,11.2469512 L27.2256098,7.89939024 C27.2256098,7.72865854 27.152439,7.56402439 27.0243902,7.44817073 L25.1890244,5.79573171 Z M26.0060976,10.6371951 L22.2621951,10.6371951 L22.2621951,6.85060976 L24.5426829,6.85060976 L26.0060976,8.16768293 L26.0060976,10.6371951 Z M9.59146341,14.9359756 C8.8597561,14.9359756 8.16463415,15.222561 7.6402439,15.7408537 C7.11585366,16.2652439 6.82317073,16.9481707 6.82317073,17.679878 C6.82317073,18.4115854 7.1097561,19.0945122 7.6402439,19.6189024 C8.17073171,20.1371951 8.8597561,20.4237805 9.59146341,20.4237805 C11.0914634,20.4237805 12.3109756,19.1920732 12.3109756,17.679878 C12.3109756,16.1676829 11.0914634,14.9359756 9.59146341,14.9359756 Z M9.59146341,19.2042683 C8.75,19.2042683 8.04268293,18.5091463 8.04268293,17.679878 C8.04268293,16.8506098 8.75,16.1554878 9.59146341,16.1554878 C10.4207317,16.1554878 11.0914634,16.8384146 11.0914634,17.679878 C11.0914634,18.5213415 10.4207317,19.2042683 9.59146341,19.2042683 Z M5.52439024,15.6859756 L4.29878049,15.6859756 L4.29878049,14.0640244 C4.29878049,13.7286585 4.02439024,13.4542683 3.68902439,13.4542683 C3.35365854,13.4542683 3.07926829,13.7286585 3.07926829,14.0640244 L3.07926829,16.2957317 C3.07926829,16.6310976 3.35365854,16.9054878 3.68902439,16.9054878 L5.52439024,16.9054878 C5.8597561,16.9054878 6.13414634,16.6310976 6.13414634,16.2957317 C6.13414634,15.9603659 5.8597561,15.6859756 5.52439024,15.6859756 Z M8.61585366,12.3628049 C8.61585366,12.027439 8.34146341,11.7530488 8.00609756,11.7530488 L0.609756098,11.7530488 C0.274390244,11.7530488 0,12.027439 0,12.3628049 C0,12.6981707 0.274390244,12.972561 0.609756098,12.972561 L8.00609756,12.972561 C8.34146341,12.972561 8.61585366,12.7042683 8.61585366,12.3628049 Z M1.84756098,10.1615854 L9.24390244,10.2042683 C9.57926829,10.2042683 9.85365854,9.93597561 9.8597561,9.60060976 C9.86585366,9.25914634 9.59146341,8.9847561 9.25609756,8.9847561 L1.8597561,8.94207317 C1.85365854,8.94207317 1.85365854,8.94207317 1.85365854,8.94207317 C1.51829268,8.94207317 1.24390244,9.21036585 1.24390244,9.54573171 C1.23780488,9.88719512 1.51219512,10.1615854 1.84756098,10.1615854 Z M3.09146341,7.39329268 L10.4878049,7.39329268 C10.8231707,7.39329268 11.097561,7.11890244 11.097561,6.78353659 C11.097561,6.44817073 10.8231707,6.17378049 10.4878049,6.17378049 L3.09146341,6.17378049 C2.75609756,6.17378049 2.48170732,6.44817073 2.48170732,6.78353659 C2.48170732,7.11890244 2.75609756,7.39329268 3.09146341,7.39329268 Z M29.7195122,6.57012195 L25.3536585,2.95426829 C25.2439024,2.86280488 25.1097561,2.81402439 24.9634146,2.81402439 L19.8292683,2.81402439 L19.8292683,0.618902439 C19.8292683,0.283536585 19.554878,0.00914634146 19.2195122,0.00914634146 L3.68902439,0.00914634146 C3.35365854,0.00914634146 3.07926829,0.283536585 3.07926829,0.618902439 L3.07926829,5.08231707 C3.07926829,5.41768293 3.35365854,5.69207317 3.68902439,5.69207317 C4.02439024,5.69207317 4.29878049,5.41768293 4.29878049,5.08231707 L4.29878049,1.22865854 L18.6158537,1.22865854 L18.6158537,15.6859756 L13.6158537,15.6859756 C13.2804878,15.6859756 13.0060976,15.9603659 13.0060976,16.2957317 C13.0060976,16.6310976 13.2804878,16.9054878 13.6158537,16.9054878 L21.0609756,16.9054878 C21.3963415,16.9054878 21.6707317,16.6310976 21.6707317,16.2957317 C21.6707317,15.9603659 21.3963415,15.6859756 21.0609756,15.6859756 L19.8353659,15.6859756 L19.8353659,4.03353659 L24.75,4.03353659 L28.7256098,7.32621951 L28.6829268,15.6737805 L28.0487805,15.6737805 C27.7134146,15.6737805 27.4390244,15.9481707 27.4390244,16.2835366 C27.4390244,16.6189024 27.7134146,16.8932927 28.0487805,16.8932927 L29.2865854,16.8932927 C29.6219512,16.8932927 29.8963415,16.625 29.8963415,16.2896341 L29.945122,7.04573171 C29.9390244,6.86280488 29.8597561,6.68597561 29.7195122,6.57012195 Z" id="Shape"></path>
                        </g>
                    </g>
                </g>
            </g>
        </g>
    </g>
</svg>