<?xml version="1.0" encoding="UTF-8"?>
<svg width="18px" height="23px" viewBox="0 0 18 23" version="1.1" xmlns="http://www.w3.org/2000/svg" xmlns:xlink="http://www.w3.org/1999/xlink">
    <!-- Generator: Sketch 52.4 (67378) - http://www.bohemiancoding.com/sketch -->
    <title>download</title>
    <desc>Created with Sketch.</desc>
    <g id="Страницы" stroke="none" stroke-width="1" fill="none" fill-rule="evenodd">
        <g id="Контакты-1200" transform="translate(-800.000000, -1075.000000)" fill="#AA2935" fill-rule="nonzero">
            <g id="Контент" transform="translate(358.000000, 258.000000)">
                <g id="Реквизиты" transform="translate(0.000000, 761.000000)">
                    <g id="На-карте" transform="translate(422.000000, 46.000000)">
                        <g id="download" transform="translate(20.000000, 10.000000)">
                            <path d="M17.9663102,12.3010183 L17.9663102,2.9089613 C17.9663102,1.30692464 16.6235294,0 14.9775401,0 L3.03208556,0 C1.38609626,0 0.043315508,1.30692464 0.043315508,2.9089613 L0.043315508,12.3057026 C0.043315508,13.9077393 1.38609626,15.214664 3.03208556,15.214664 L4.96684492,15.214664 C5.29411765,15.214664 5.55882353,14.9570265 5.55882353,14.6384929 C5.55882353,14.3199593 5.29411765,14.0623218 4.96684492,14.0623218 L3.03208556,14.0623218 C2.03582888,14.0623218 1.22245989,13.2706721 1.22245989,12.3010183 L1.22245989,2.9089613 C1.22245989,1.93930754 2.03582888,1.14765784 3.03208556,1.14765784 L14.9775401,1.14765784 C15.9737968,1.14765784 16.7871658,1.93930754 16.7871658,2.9089613 L16.7871658,12.3057026 C16.7871658,13.2753564 15.9737968,14.0670061 14.9775401,14.0670061 L13.0427807,14.0670061 C12.715508,14.0670061 12.4508021,14.3246436 12.4508021,14.6431772 C12.4508021,14.9617108 12.715508,15.2193483 13.0427807,15.2193483 L14.9775401,15.2193483 C16.6283422,15.214664 17.9663102,13.9077393 17.9663102,12.3010183 Z" id="Shape"></path>
                            <path d="M9.00481283,9.66374745 C8.67754011,9.66374745 8.41283422,9.92138493 8.41283422,10.2399185 L8.41283422,21.0044807 L5.38074866,18.0533605 C5.14973262,17.8285132 4.77914439,17.8285132 4.54812834,18.0533605 C4.3171123,18.2782077 4.3171123,18.6389002 4.54812834,18.8637475 L8.58609626,22.79389 C8.69679144,22.9016293 8.8459893,22.9625255 9.00481283,22.9625255 C9.15882353,22.9625255 9.31283422,22.9016293 9.42352941,22.79389 L13.4614973,18.8637475 C13.6925134,18.6389002 13.6925134,18.2782077 13.4614973,18.0533605 C13.2304813,17.8285132 12.859893,17.8285132 12.628877,18.0533605 L9.59679144,21.0044807 L9.59679144,10.2399185 C9.59197861,9.92138493 9.33208556,9.66374745 9.00481283,9.66374745 Z" id="Shape"></path>
                        </g>
                    </g>
                </g>
            </g>
        </g>
    </g>
</svg>