<?xml version="1.0" encoding="UTF-8"?>
<svg width="20px" height="18px" viewBox="0 0 20 18" version="1.1" xmlns="http://www.w3.org/2000/svg" xmlns:xlink="http://www.w3.org/1999/xlink">
    <!-- Generator: Sketch 52.4 (67378) - http://www.bohemiancoding.com/sketch -->
    <title>filter</title>
    <desc>Created with Sketch.</desc>
    <g id="Страницы" stroke="none" stroke-width="1" fill="none" fill-rule="evenodd">
        <g id="Каталог-320" transform="translate(-84.000000, -352.000000)" fill="#AA2935" fill-rule="nonzero">
            <g id="Контент" transform="translate(20.000000, 288.000000)">
                <g id="Показать-фильтр" transform="translate(0.000000, 52.000000)">
                    <g id="big-filter" transform="translate(64.000000, 12.000000)">
                        <path d="M19.4159477,0.0322875817 L0.584052288,0.0322875817 C0.261503268,0.0322875817 0,0.29379085 0,0.616339869 L0,4.40754902 C0,4.73009804 0.261503268,4.99160131 0.584052288,4.99160131 L2.00055556,4.99160131 L7.79160131,12.378268 L7.79160131,16.8999673 C7.79160131,17.1053922 7.8995098,17.2956209 8.07565359,17.4011438 C8.16787582,17.4563725 8.27163399,17.4840196 8.37565359,17.4840196 C8.4703268,17.4840196 8.56522876,17.4610131 8.65143791,17.4148039 L11.9001307,15.6746405 C12.0899346,15.5729085 12.2083987,15.3751307 12.2083987,15.1598039 L12.2083987,12.378268 L17.9994444,4.99153595 L19.415915,4.99153595 C19.7384641,4.99153595 19.9999673,4.73003268 19.9999673,4.40748366 L19.9999673,0.616339869 C20,0.29379085 19.7384967,0.0322875817 19.4159477,0.0322875817 Z M11.1647386,11.8161111 C11.0841503,11.9189542 11.0402941,12.0458824 11.0402941,12.1764706 L11.0402941,14.81 L8.95970588,15.9244771 L8.95970588,12.1764379 C8.95970588,12.045817 8.91591503,11.9189216 8.83526144,11.8160784 L3.4848366,4.99156863 L16.5152288,4.99156863 L11.1647386,11.8161111 Z M18.8318954,3.82343137 L1.16810458,3.82343137 L1.16810458,1.20035948 L18.8318954,1.20035948 L18.8318954,3.82343137 Z" id="filter"></path>
                    </g>
                </g>
            </g>
        </g>
    </g>
</svg>