<?xml version="1.0" encoding="UTF-8"?>
<svg width="18px" height="18px" viewBox="0 0 18 18" version="1.1" xmlns="http://www.w3.org/2000/svg" xmlns:xlink="http://www.w3.org/1999/xlink">
    <!-- Generator: Sketch 52.4 (67378) - http://www.bohemiancoding.com/sketch -->
    <title>gear</title>
    <desc>Created with Sketch.</desc>
    <g id="Страницы" stroke="none" stroke-width="1" fill="none" fill-rule="evenodd">
        <g id="Товар-1200" transform="translate(-1176.000000, -420.000000)" fill="#AA2935" fill-rule="nonzero">
            <g id="Контент" transform="translate(360.000000, 271.000000)">
                <g id="Блок-справа" transform="translate(612.000000, 0.000000)">
                    <g id="Механика" transform="translate(204.000000, 148.000000)">
                        <g id="gear" transform="translate(0.000000, 1.000000)">
                            <path d="M17.1975586,7.26173437 C16.8590391,7.21103906 16.5115195,7.16241797 16.1647031,7.11720703 C16.1226914,7.11175781 16.0885898,7.08324609 16.0779727,7.04464453 C15.9179062,6.46375781 15.6856289,5.90322656 15.3876445,5.378625 C15.3676055,5.34339844 15.3713672,5.29896094 15.3972422,5.26531641 C15.6105352,4.98810937 15.8219648,4.70787891 16.0256953,4.43246484 C16.3007578,4.06058203 16.2608203,3.53288672 15.9328828,3.20491406 L14.7950156,2.06704687 C14.467043,1.73910937 13.9393828,1.69917187 13.5674297,1.97430469 C13.2926133,2.17757812 13.012418,2.38900781 12.7346133,2.60272266 C12.7010742,2.62859766 12.6565312,2.63235937 12.6213047,2.61235547 C12.0967383,2.31437109 11.536207,2.08209375 10.9552852,1.92199219 C10.9166484,1.91141016 10.8881367,1.87730859 10.8826523,1.83519141 C10.8373359,1.48784766 10.78875,1.14036328 10.7381953,0.802441406 C10.6697461,0.344953125 10.2684023,0 9.80458594,0 L8.19537891,0 C7.73152734,0 7.33018359,0.344953125 7.26183984,0.80240625 C7.21125,1.14039844 7.16266406,1.48784766 7.11734766,1.83526172 C7.11182812,1.87734375 7.08335156,1.911375 7.04467969,1.92199219 C6.46375781,2.08216406 5.90319141,2.31440625 5.37873047,2.61235547 C5.34346875,2.63235937 5.29896094,2.62849219 5.26535156,2.60272266 C4.98758203,2.38900781 4.70735156,2.17757812 4.4325,1.97426953 C4.06051172,1.69917187 3.53285156,1.73917969 3.20494922,2.06708203 L2.06708203,3.20494922 C1.73910937,3.53295703 1.69920703,4.0606875 1.97433984,4.43253516 C2.17838672,4.70837109 2.38981641,4.98853125 2.60275781,5.26531641 C2.62859766,5.29889062 2.63239453,5.34336328 2.61239062,5.378625 C2.31433594,5.90333203 2.08209375,6.46386328 1.92202734,7.04464453 C1.91144531,7.08321094 1.87734375,7.11172266 1.83529687,7.11724219 C1.48865625,7.16248828 1.14117187,7.21107422 0.802476562,7.26176953 C0.344953125,7.33014844 0,7.7315625 0,8.19534375 L0,9.80458594 C0,10.2684023 0.344953125,10.6697812 0.80240625,10.7381953 C1.14110156,10.7888906 1.48862109,10.8374766 1.83526172,10.8826875 C1.87734375,10.888207 1.911375,10.9166836 1.92199219,10.9553203 C2.08205859,11.5361367 2.31433594,12.096668 2.61235547,12.6213398 C2.63235938,12.6566016 2.6285625,12.7010742 2.60272266,12.7346484 C2.38925391,13.0121016 2.17782422,13.2922969 1.97430469,13.5674648 C1.69920703,13.9393477 1.73907422,14.4670781 2.06704687,14.7950508 L3.20491406,15.932918 C3.53292187,16.2608906 4.06065234,16.3008281 4.4325,16.0256602 C4.70731641,15.8223867 4.98751172,15.610957 5.26531641,15.3972422 C5.29889063,15.3713672 5.34339844,15.3676406 5.378625,15.3876094 C5.90315625,15.6855937 6.46365234,15.9178008 7.04464453,16.0779727 C7.08328125,16.0885898 7.11179297,16.1226562 7.11727734,16.1647031 C7.16259375,16.5120469 7.21121484,16.8595664 7.26176953,17.1974531 C7.33018359,17.6549414 7.73152734,17.9998945 8.19537891,17.9998945 L9.80458594,17.9998945 C10.2684023,17.9998945 10.6697813,17.6549414 10.7381602,17.1973828 C10.78875,16.8590742 10.8373359,16.5115898 10.8826172,16.1646328 C10.8881367,16.1225508 10.9166133,16.0884844 10.95525,16.077832 C11.5361719,15.9176602 12.0967383,15.685418 12.6212344,15.3874687 C12.6564961,15.3675352 12.7009687,15.371332 12.7345781,15.3971016 C13.0123477,15.6108164 13.2925781,15.8222461 13.5673945,16.0255195 C13.9392773,16.3006172 14.4669727,16.26075 14.7949805,15.9327773 L15.9328477,14.7949102 C16.2607852,14.4669375 16.3007227,13.9392422 16.025625,13.5673242 C15.8218945,13.2920156 15.6104297,13.0117852 15.3971719,12.7345078 C15.371332,12.7009336 15.3675352,12.6564609 15.3875742,12.6211992 C15.6855938,12.0965273 15.9178359,11.5359961 16.0779023,10.9552148 C16.0885898,10.916543 16.1226211,10.8880664 16.1647031,10.8825469 C16.5114492,10.8373359 16.8589687,10.7887148 17.1975234,10.7380547 C17.6550117,10.6696758 17.9999648,10.2682969 17.9999648,9.80448047 L17.9999648,8.19523828 C17.9999648,7.73152734 17.6550117,7.33011328 17.1975586,7.26173437 Z M17.1594492,9.80465625 C17.1594492,9.85563281 17.1223945,9.89957813 17.0732109,9.90699609 C16.7398594,9.95688281 16.3976484,10.0046953 16.0560703,10.0493086 C15.6778594,10.0985977 15.3684141,10.3665586 15.2676563,10.732043 C15.1260117,11.245957 14.9204883,11.7419766 14.6568164,12.2062148 C14.4693281,12.5362969 14.4984727,12.944918 14.7310664,13.2472617 C14.9411602,13.5203555 15.1493906,13.7962969 15.349957,14.0674219 C15.3795586,14.1073945 15.3746367,14.1647695 15.3386016,14.2008047 L14.2006992,15.3386719 C14.1646289,15.3747422 14.1072891,15.3795586 14.0673516,15.3500625 C13.7967539,15.1498477 13.5207422,14.9416172 13.2471563,14.7311367 C12.9448477,14.4985078 12.5362617,14.4693633 12.2062148,14.6568164 C11.7419766,14.9204883 11.245957,15.1260469 10.7319727,15.2677266 C10.3665586,15.3684492 10.0985977,15.6778945 10.0492031,16.0561406 C10.0046602,16.3979297 9.95677734,16.7401406 9.90692578,17.0732813 C9.89957813,17.1224648 9.8555625,17.1595195 9.80458594,17.1595195 L8.19537891,17.1595195 C8.14440234,17.1595195 8.10038672,17.1224648 8.09303906,17.0732461 C8.04329297,16.7404922 7.995375,16.3982813 7.95076172,16.0561758 C7.9014375,15.6779297 7.63340625,15.3684844 7.26799219,15.2677617 C6.75397266,15.126082 6.25795313,14.9205234 5.79375,14.6568164 C5.64901172,14.5746563 5.48915625,14.5340859 5.32982813,14.5340859 C5.12578125,14.5340859 4.92254297,14.6005313 4.75284375,14.731207 C4.47922266,14.9416875 4.20324609,15.149918 3.93264844,15.3501328 C3.89264063,15.3796289 3.83537109,15.3748125 3.79933594,15.3387422 L2.66143359,14.200875 C2.62536328,14.1648047 2.62044141,14.1075 2.65004297,14.0675273 C2.85046875,13.7965781 3.05866406,13.5206367 3.26893359,13.247332 C3.50149219,12.9449883 3.53067188,12.5364375 3.34325391,12.2063906 C3.07947656,11.7420117 2.87398828,11.2460273 2.73234375,10.7321484 C2.63162109,10.3667344 2.32217578,10.0987383 1.94396484,10.0494141 C1.60252734,10.0048711 1.26028125,9.95695313 0.926753906,9.90710156 C0.877570313,9.89971875 0.840515625,9.85573828 0.840515625,9.80476172 L0.840515625,8.19551953 C0.840515625,8.14454297 0.877570313,8.1005625 0.926753906,8.09317969 C1.26028125,8.04329297 1.60249219,7.99541016 1.94389453,7.95086719 C2.32214063,7.90157813 2.63158594,7.63358203 2.73230859,7.26813281 C2.87388281,6.75428906 3.07944141,6.25826953 3.34321875,5.79389063 C3.53067188,5.46380859 3.50149219,5.05522266 3.26893359,4.75294922 C3.05922656,4.48027734 2.85099609,4.20437109 2.65004297,3.93275391 C2.62051172,3.89278125 2.62539844,3.83540625 2.66143359,3.79940625 L3.79926563,2.66150391 C3.83526563,2.62543359 3.89260547,2.62061719 3.93257813,2.65011328 C4.20317578,2.85029297 4.47915234,3.05852344 4.75277344,3.26903906 C5.05511719,3.5015625 5.46366797,3.53077734 5.79378516,3.34328906 C6.25795313,3.07961719 6.75397266,2.87405859 7.26795703,2.73237891 C7.63340625,2.63165625 7.9014375,2.32221094 7.95076172,1.94396484 C7.99541016,1.60185938 8.04325781,1.25964844 8.09307422,0.926789063 C8.10042188,0.877675781 8.1444375,0.840585938 8.19541406,0.840585938 L9.80462109,0.840585938 C9.85559766,0.840585938 9.89961328,0.877640625 9.90696094,0.926824219 C9.95677734,1.25957813 10.004625,1.60175391 10.0492734,1.94396484 C10.0985977,2.32221094 10.3666289,2.63165625 10.732043,2.73237891 C11.2460273,2.87405859 11.7420117,3.07961719 12.2062852,3.34328906 C12.536332,3.53067188 12.944918,3.5015625 13.2471914,3.26896875 C13.5208125,3.05848828 13.7967891,2.85025781 14.0673516,2.65007813 C14.1073242,2.62047656 14.1646992,2.62536328 14.2007344,2.66146875 L15.3386016,3.79933594 C15.3746719,3.83540625 15.3795234,3.89274609 15.3499922,3.93268359 C15.1494258,4.20387891 14.9411953,4.47978516 14.7311016,4.75287891 C14.498543,5.05525781 14.4693633,5.46384375 14.6568516,5.79392578 C14.9205586,6.25816406 15.126082,6.75414844 15.2677617,7.26813281 C15.3684844,7.63354688 15.678,7.90150781 16.0561055,7.95079688 C16.3976836,7.995375 16.7399297,8.04325781 17.0733164,8.09310938 C17.1225,8.10049219 17.1595547,8.14447266 17.1595547,8.19544922 L17.1595547,9.80465625 L17.1594492,9.80465625 Z" id="Shape"></path>
                            <path d="M9,5.09294531 C6.845625,5.09294531 5.09294531,6.845625 5.09294531,9 C5.09294531,11.154375 6.845625,12.9070547 9,12.9070547 C11.154375,12.9070547 12.9070547,11.154375 12.9070547,9 C12.9070547,6.845625 11.154375,5.09294531 9,5.09294531 Z M9,12.0665039 C7.30908984,12.0665039 5.93349609,10.690875 5.93349609,9 C5.93349609,7.30908984 7.30916016,5.93349609 9,5.93349609 C10.690875,5.93349609 12.0665039,7.309125 12.0665039,9 C12.0665039,10.690875 10.6909102,12.0665039 9,12.0665039 Z" id="Shape"></path>
                        </g>
                    </g>
                </g>
            </g>
        </g>
    </g>
</svg>