<?xml version="1.0" encoding="UTF-8"?>
<svg width="43px" height="40px" viewBox="0 0 43 40" version="1.1" xmlns="http://www.w3.org/2000/svg" xmlns:xlink="http://www.w3.org/1999/xlink">
    <!-- Generator: Sketch 52.4 (67378) - http://www.bohemiancoding.com/sketch -->
    <title>graph-price</title>
    <desc>Created with Sketch.</desc>
    <g id="Symbols" stroke="none" stroke-width="1" fill="none" fill-rule="evenodd">
        <g id="Преимущества" transform="translate(-930.000000, 0.000000)" fill="#A4A3A3" fill-rule="nonzero">
            <g id="4">
                <g transform="translate(930.000000, 0.000000)">
                    <g id="graph-price">
                        <path d="M39.3881347,20.3566497 C38.6865338,20.3566497 38.0006913,20.5670421 37.4163821,20.961846 L32.3465194,15.8174055 C33.170963,14.5601381 33.140879,12.9166061 32.2714885,11.6914971 C31.4017399,10.4660247 29.874621,9.91624274 28.4382912,10.3108648 C27.0021405,10.7058503 25.9572603,11.962936 25.8161522,13.4662064 L19.1518399,14.1767805 C18.8157233,13.0712209 17.9764168,12.1971293 16.8962595,11.8266715 C15.8162813,11.4562137 14.6263535,11.6348111 13.6978695,12.3063227 L6.6173957,5.54923693 C6.97124032,4.97874274 7.15962322,4.3186773 7.16141391,3.64462209 C7.16141391,1.63844474 5.55836887,0.011627907 3.58070696,0.011627907 C1.60304504,0.011627907 0,1.63844474 0,3.64462209 C0,5.65061772 1.60304504,7.27761628 3.58070696,7.27761628 C4.3186592,7.27670786 5.03762993,7.04287791 5.63823463,6.60846656 L12.7185293,13.365734 C12.3646847,13.9362282 12.1761227,14.5962936 12.1745111,15.2703488 C12.1727204,17.2045785 13.6686809,18.7992369 15.5729236,18.8928052 C17.4771664,18.9863735 19.1179954,17.5465116 19.3010061,15.6211846 L25.9653185,14.9106105 C26.2974955,15.9983648 27.1156716,16.8630087 28.1732659,17.243641 C29.2306811,17.6246367 30.402881,17.4765625 31.336558,16.8448401 L36.4065998,21.9892805 C35.5030068,23.3793605 35.6464427,25.2145712 36.7552514,26.4427689 C37.8631646,27.6707849 39.6526228,27.9772893 41.0968317,27.1864099 C42.5406825,26.3955305 43.2703975,24.7096657 42.866592,23.0959302 C42.4627865,21.4818314 41.0291428,20.353016 39.3881347,20.3566497 Z M3.58070696,5.82449126 C2.39436052,5.82449126 1.43239024,4.84829214 1.43239024,3.64462209 C1.43239024,2.44077033 2.39436052,1.4649346 3.58070696,1.4649346 C4.76705339,1.4649346 5.72920274,2.44077033 5.72920274,3.64462209 C5.72920274,4.84829214 4.76705339,5.82449126 3.58070696,5.82449126 Z M15.7553971,17.450218 C14.5686925,17.450218 13.6067222,16.4742006 13.6067222,15.2703488 C13.6067222,14.0663154 14.5686925,13.0904796 15.7553971,13.0904796 C16.9417436,13.0904796 17.9037138,14.0663154 17.9037138,15.2703488 C17.9037138,16.4742006 16.9417436,17.450218 15.7553971,17.450218 Z M29.3621194,15.997093 C28.1757729,15.997093 27.2136236,15.0208939 27.2136236,13.8172238 C27.2136236,12.6131904 28.1757729,11.637173 29.3621194,11.637173 C30.5484658,11.637173 31.5104361,12.6131904 31.5104361,13.8172238 C31.5104361,15.0208939 30.5484658,15.997093 29.3621194,15.997093 Z M39.3881347,26.1693314 C38.2016091,26.1693314 37.2396389,25.193314 37.2396389,23.9896439 C37.2396389,22.7857921 38.2016091,21.8097747 39.3881347,21.8097747 C40.5744811,21.8097747 41.5366305,22.7857921 41.5366305,23.9896439 C41.5366305,25.193314 40.5744811,26.1693314 39.3881347,26.1693314 Z" id="Shape"></path>
                        <path d="M40.1042402,35.6151889 C39.708672,35.6151889 39.3881347,35.9405887 39.3881347,36.3419331 L39.3881347,37.4943677 L27.0039312,24.9291424 C26.724043,24.6455305 26.2708139,24.6455305 25.9911047,24.9291424 L19.6940673,31.3181323 L12.322782,23.8392079 C12.0428938,23.5555959 11.5898437,23.5555959 11.3101346,23.8392079 L7.8775195,27.321766 L1.93862438,21.2961483 C1.65748268,21.0208939 1.21087917,21.0245276 0.934572406,21.3050509 C0.658444651,21.5850291 0.654505109,22.0383358 0.92597699,22.3235828 L7.37128531,28.862827 C7.65099449,29.1462573 8.10422357,29.1462573 8.38393275,28.862827 L11.8163688,25.3804506 L19.1876541,32.8591933 C19.4675423,33.1424419 19.9207714,33.1424419 20.2003015,32.8591933 L26.4973389,26.4702035 L38.3753082,38.5218023 L37.2396389,38.5218023 C36.8440707,38.5218023 36.5235333,38.8470204 36.5235333,39.2481832 C36.5235333,39.649346 36.8440707,39.9749273 37.2396389,39.9749273 L40.1042402,39.9749273 C40.1982526,39.9752907 40.2915487,39.9563953 40.3783982,39.9195131 C40.385561,39.9195131 40.3907541,39.9117006 40.3975588,39.9086119 C40.4668594,39.8764535 40.5309668,39.8330305 40.5859417,39.7794331 C40.6457514,39.7183866 40.6960705,39.6484375 40.7360033,39.5721293 C40.7481801,39.5486919 40.7594616,39.524346 40.7687733,39.4998183 C40.800648,39.4195131 40.8178388,39.3343023 40.8203458,39.2481832 L40.8203458,36.3419331 C40.8203458,35.9405887 40.4998085,35.6151889 40.1042402,35.6151889 Z" id="Shape"></path>
                    </g>
                </g>
            </g>
        </g>
    </g>
</svg>