<?xml version="1.0" encoding="UTF-8"?>
<svg width="30px" height="31px" viewBox="0 0 30 31" version="1.1" xmlns="http://www.w3.org/2000/svg" xmlns:xlink="http://www.w3.org/1999/xlink">
    <!-- Generator: Sketch 52.4 (67378) - http://www.bohemiancoding.com/sketch -->
    <title>payment-wallet</title>
    <desc>Created with Sketch.</desc>
    <g id="Страницы" stroke="none" stroke-width="1" fill="none" fill-rule="evenodd">
        <g id="Товар-1200" transform="translate(-702.000000, -1235.000000)" fill="#AA2935" fill-rule="nonzero">
            <g id="Контент" transform="translate(360.000000, 271.000000)">
                <g id="Оплата" transform="translate(306.000000, 896.000000)">
                    <g id="1" transform="translate(36.000000, 68.000000)">
                        <g id="payment-wallet">
                            <path d="M29.9275676,14.053964 L28.4800901,14.053964 L28.4800901,7.3954955 C28.4800901,5.79918919 27.1814414,4.50054054 25.5851351,4.50054054 L23.6246847,4.50054054 L21.6184685,0.893423423 C21.3127027,0.342162162 20.7308108,0 20.0997297,0 C19.8055856,0 19.5137838,0.0758558559 19.2561261,0.218828829 L11.5566667,4.50045045 L2.95630631,4.50045045 C1.36,4.50045045 0.0613513514,5.7990991 0.0613513514,7.39540541 L0.0613513514,27.2740541 C0.0613513514,28.8703604 1.36,30.169009 2.95630631,30.169009 L25.5851351,30.169009 C27.1814414,30.169009 28.4800901,28.8703604 28.4800901,27.2740541 L28.4800901,21.436036 L29.9275676,21.436036 L29.9275676,14.053964 Z M25.5851351,5.65846847 C26.4767568,5.65846847 27.2051351,6.33585586 27.302973,7.20261261 L25.1271171,7.20261261 L24.269009,5.65846847 L25.5851351,5.65846847 Z M19.8194595,1.2309009 C20.090991,1.07864865 20.4563964,1.18513514 20.6063063,1.45558559 L23.8023423,7.20207207 L9.0809009,7.20207207 L19.8194595,1.2309009 Z M27.3220721,27.2740541 C27.3220721,28.2317117 26.5427027,29.0110811 25.585045,29.0110811 L2.95630631,29.0110811 C1.99864865,29.0110811 1.21927928,28.2317117 1.21927928,27.2740541 L1.21927928,7.3954955 C1.21927928,6.43783784 1.99864865,5.65846847 2.95630631,5.65846847 L9.47459459,5.65846847 L6.69774775,7.2027027 L3.3181982,7.2027027 C2.99801802,7.2027027 2.73918919,7.46207207 2.73918919,7.78171171 C2.73918919,8.10135135 2.99801802,8.36072072 3.3181982,8.36072072 L4.61513514,8.36072072 L25.770991,8.36072072 L27.3220721,8.36072072 L27.3220721,14.0545045 L23.0879279,14.0545045 C21.1216216,14.0545045 19.5213514,15.6548649 19.5213514,17.6210811 L19.5213514,17.8700901 C19.5213514,19.8363964 21.1217117,21.4366667 23.0879279,21.4366667 L27.3220721,21.4366667 L27.3220721,27.2740541 Z M28.7695495,20.2781081 L28.4800901,20.2781081 L23.0879279,20.2781081 C21.7597297,20.2781081 20.6792793,19.1977477 20.6792793,17.8694595 L20.6792793,17.6204505 C20.6792793,16.2922523 21.7596396,15.2118018 23.0879279,15.2118018 L28.4800901,15.2118018 L28.7695495,15.2118018 L28.7695495,20.2781081 Z M24.8613514,17.7925225 C24.8613514,18.4989189 24.2892793,19.0709009 23.582973,19.0709009 C22.8765766,19.0709009 22.3045946,18.4988288 22.3045946,17.7925225 C22.3045946,17.0862162 22.8766667,16.5141441 23.582973,16.5141441 C24.2893694,16.5140541 24.8613514,17.0866667 24.8613514,17.7925225 Z" id="Shape"></path>
                        </g>
                    </g>
                </g>
            </g>
        </g>
    </g>
</svg>