<?xml version="1.0" encoding="UTF-8"?>
<svg width="30px" height="31px" viewBox="0 0 30 31" version="1.1" xmlns="http://www.w3.org/2000/svg" xmlns:xlink="http://www.w3.org/1999/xlink">
    <!-- Generator: Sketch 52.4 (67378) - http://www.bohemiancoding.com/sketch -->
    <title>payment-bank</title>
    <desc>Created with Sketch.</desc>
    <g id="Страницы" stroke="none" stroke-width="1" fill="none" fill-rule="evenodd">
        <g id="Товар-1200" transform="translate(-702.000000, -1405.000000)" fill="#AA2935" fill-rule="nonzero">
            <g id="Контент" transform="translate(360.000000, 271.000000)">
                <g id="Оплата" transform="translate(306.000000, 896.000000)">
                    <g id="3" transform="translate(36.000000, 238.000000)">
                        <g id="payment-bank">
                            <path d="M28.4999085,10.5292511 L28.4999085,9.0293884 L29.4998932,9.0293884 C29.7761536,9.0293884 30,8.80554199 30,8.5292816 L30,4.02946471 C30,3.79852295 29.8418426,3.59756473 29.6175384,3.54331969 L15.1174164,0.0434875781 C15.0352478,0.0233459766 14.9489593,0.0247192383 14.8674774,0.0473785547 L0.367584258,4.04731752 C0.150604219,4.10705566 -2.84217094e-14,4.30435184 -2.84217094e-14,4.52934264 L-2.84217094e-14,8.5292816 C-2.84217094e-14,8.80554199 0.223846406,9.0293884 0.49987793,9.0293884 L1.50009152,9.0293884 L1.50009152,10.5292511 C1.50009152,10.8055114 1.72393799,11.0293579 1.99996945,11.0293579 L1.99996945,23.0291748 C1.72393799,23.0291748 1.50009152,23.2530212 1.50009152,23.5292816 L1.50009152,25.0291443 L0.999984727,25.0291443 C0.723953262,25.0291443 0.500106797,25.2532196 0.500106797,25.5292511 L0.500106797,27.0291138 C0.223846406,27.0291138 -2.83696677e-14,27.2531891 -2.83696677e-14,27.5292206 L-2.83696677e-14,29.5291901 C-2.83696677e-14,29.8052215 0.223846406,30.029068 0.500106797,30.029068 L29.4998932,30.029068 C29.7761536,30.029068 29.9997711,29.8052215 29.9997711,29.5291901 L29.9997711,27.5292206 C29.9997711,27.2529602 29.7759247,27.0291138 29.4998932,27.0291138 L29.4998932,25.5292511 C29.4998932,25.2529907 29.2760467,25.0291443 29.0000153,25.0291443 L28.4999085,25.0291443 L28.4999085,23.5292816 C28.4999085,23.2530212 28.276062,23.0291748 28.0000305,23.0291748 L28.0000305,11.0293579 C28.276062,11.0293579 28.4999085,10.8055114 28.4999085,10.5292511 Z M27.4999237,10.0293732 L23.4999847,10.0293732 L23.4999847,9.0293884 L27.4999237,9.0293884 L27.4999237,10.0293732 Z M22.9998779,23.0294037 C22.7238464,23.0294037 22.5,23.2532501 22.5,23.5292816 L22.5,25.0293732 L7.5,25.0293732 L7.5,23.5292816 C7.5,23.2530212 7.27615359,23.0294037 7.00012207,23.0294037 L7.00012207,11.0293579 C7.27615359,11.0293579 7.5,10.8055114 7.5,10.5292511 L7.5,9.0293884 L22.5,9.0293884 L22.5,10.5292511 C22.5,10.8055114 22.7238464,11.0293579 22.9998779,11.0293579 L22.9998779,23.0294037 Z M0.999984727,4.91043094 L15.0084686,1.04576109 L29.0000153,4.4229126 L29.0000153,8.02940367 L0.999984727,8.02940367 L0.999984727,4.91043094 Z M6.50001527,9.0293884 L6.50001527,10.0293732 L2.50007631,10.0293732 L2.50007631,9.0293884 L6.50001527,9.0293884 Z M2.99995424,11.0293579 L5.99990848,11.0293579 L5.99990848,23.0294037 L2.99995424,23.0294037 L2.99995424,11.0293579 Z M2.50007631,24.0291595 L6.50001527,24.0291595 L6.50001527,25.0293732 L2.50007631,25.0293732 L2.50007631,24.0291595 Z M29.0000153,29.0293121 L0.999984727,29.0293121 L0.999984727,28.0293274 L29.0000153,28.0293274 L29.0000153,29.0293121 Z M1.50009152,27.0293426 L1.50009152,26.0293579 L28.4999085,26.0293579 L28.4999085,27.0293426 L1.50009152,27.0293426 Z M23.4999847,25.0293732 L23.4999847,24.0291595 L27.4999237,24.0291595 L27.4999237,25.0293732 L23.4999847,25.0293732 Z M27.0000458,23.0294037 L23.9998627,23.0294037 L23.9998627,11.0293579 L27.0000458,11.0293579 L27.0000458,23.0294037 Z" id="Shape"></path>
                            <path d="M15,7.02941895 C16.3806152,7.02941895 17.5000763,5.9101868 17.5000763,4.52934264 C17.5000763,3.14849854 16.3806152,2.02926633 15,2.02926633 C13.6191559,2.02926633 12.4999237,3.14849854 12.4999237,4.52934264 C12.5015259,5.90927121 13.6198425,7.02758789 15,7.02941895 Z M15,3.02925111 C15.8283234,3.02925111 16.4998627,3.70101926 16.4998627,4.52934264 C16.4998627,5.35766602 15.8283234,6.02943422 15,6.02943422 C14.1714478,6.02943422 13.4999085,5.35766602 13.4999085,4.52934264 C13.4999085,3.70101926 14.1714478,3.02925111 15,3.02925111 Z" id="Shape"></path>
                        </g>
                    </g>
                </g>
            </g>
        </g>
    </g>
</svg>