<?xml version="1.0" encoding="UTF-8"?>
<svg width="20px" height="21px" viewBox="0 0 20 21" version="1.1" xmlns="http://www.w3.org/2000/svg" xmlns:xlink="http://www.w3.org/1999/xlink">
    <!-- Generator: Sketch 52.4 (67378) - http://www.bohemiancoding.com/sketch -->
    <title>pdf</title>
    <desc>Created with Sketch.</desc>
    <g id="Страницы" stroke="none" stroke-width="1" fill="none" fill-rule="evenodd">
        <g id="Товар-1200" transform="translate(-374.000000, -910.000000)" fill="#AA2935" fill-rule="nonzero">
            <g id="Контент" transform="translate(360.000000, 271.000000)">
                <g id="Другие-фото">
                    <g id="Инструкция" transform="translate(0.000000, 628.000000)">
                        <g id="play-button">
                            <g id="pdf" transform="translate(14.000000, 11.000000)">
                                <path d="M19.8545041,5.68300195 L14.4644628,0.123785156 C14.3877273,0.0447070313 14.2818595,0 14.171281,0 L6.13780992,0 C5.23876033,0 4.50731405,0.725730469 4.50731405,1.61773828 L4.50731405,7.26924023 L1.25165289,7.26924023 C0.579008264,7.26924023 0.0317768595,7.81224609 0.0317768595,8.47973437 L0.0317768595,14.5395469 C0.0317768595,15.2069941 0.579008264,15.75 1.25165289,15.75 L4.50731405,15.75 L4.50731405,19.3850918 C4.50731405,20.275541 5.23876033,21 6.13780992,21 L18.3377273,21 C19.2367769,21 19.9682231,20.2759512 19.9682231,19.3859941 L19.9682231,5.96305664 C19.9682231,5.85863086 19.927438,5.75826562 19.8545041,5.68300195 Z M14.2721074,1.09023633 L18.6968595,5.65383984 L14.2721074,5.65383984 L14.2721074,1.09023633 Z M1.25165289,14.9423203 C1.02768595,14.9423203 0.84553719,14.7616465 0.84553719,14.5395469 L0.84553719,8.47973437 C0.84553719,8.25763477 1.02772727,8.07691992 1.25165289,8.07691992 L12.2385124,8.07691992 C12.4624793,8.07691992 12.6446281,8.25763477 12.6446281,8.47973437 L12.6446281,14.5395469 C12.6446281,14.7616465 12.462438,14.9423203 12.2385124,14.9423203 L1.25165289,14.9423203 Z M19.1544628,19.3859941 C19.1544628,19.8306035 18.7880579,20.1923203 18.337686,20.1923203 L6.13780992,20.1923203 C5.68743802,20.1923203 5.32103306,19.8302344 5.32103306,19.3851328 L5.32103306,15.75 L12.2385124,15.75 C12.911157,15.75 13.4583884,15.2069941 13.4583884,14.5395469 L13.4583884,8.47973437 C13.4583884,7.81224609 12.911157,7.26924023 12.2385124,7.26924023 L5.32103306,7.26924023 L5.32103306,1.61773828 C5.32103306,1.17103711 5.68743802,0.807679688 6.13780992,0.807679688 L13.4583471,0.807679688 L13.4583471,6.05767969 C13.4583471,6.28072266 13.6405372,6.46151953 13.8652066,6.46151953 L19.1544628,6.46151953 L19.1544628,19.3859941 Z" id="Shape"></path>
                                <path d="M4.89590909,10.2495586 C4.76082645,10.0752422 4.5931405,9.96203906 4.39289256,9.90999023 C4.26256198,9.87529102 3.98285124,9.85794141 3.55371901,9.85794141 L2.42132231,9.85794141 L2.42132231,13.3269199 L3.12698347,13.3269199 L3.12698347,12.0183574 L3.58710744,12.0183574 C3.90657025,12.0183574 4.15053719,12.0017871 4.31900826,11.9686465 C4.44297521,11.9418223 4.56495868,11.8870254 4.68495868,11.8041738 C4.80495868,11.7213633 4.9038843,11.6073809 4.98177686,11.4622676 C5.05966942,11.3171543 5.09859504,11.1380801 5.09859504,10.925127 C5.09855372,10.6490508 5.03099174,10.423875 4.89590909,10.2495586 Z M4.29157025,11.2043613 C4.23834711,11.2816758 4.16483471,11.3384414 4.07103306,11.3747402 C3.9772314,11.4110391 3.79132231,11.429168 3.51318182,11.429168 L3.12698347,11.429168 L3.12698347,10.444793 L3.46789256,10.444793 C3.72219008,10.444793 3.89144628,10.452668 3.97566116,10.468459 C4.09008264,10.4889668 4.18466942,10.5402363 4.25933884,10.6222676 C4.33404959,10.7042988 4.37140496,10.8084375 4.37140496,10.9346016 C4.37144628,11.0371406 4.34479339,11.1270469 4.29157025,11.2043613 Z" id="Shape"></path>
                                <path d="M8.49095041,10.8056484 C8.41466942,10.584 8.30338843,10.3966816 8.15719008,10.2436523 C8.01099174,10.090623 7.83533058,9.98414648 7.63033058,9.92418164 C7.4777686,9.88000781 7.25603306,9.85794141 6.96520661,9.85794141 L5.67545455,9.85794141 L5.67545455,13.3269199 L7.00334711,13.3269199 C7.26400826,13.3269199 7.47219008,13.3024746 7.62793388,13.253543 C7.83615702,13.1873027 8.00144628,13.0950176 8.12380165,12.9766875 C8.28590909,12.8205 8.41066116,12.6162422 8.49809917,12.363832 C8.5696281,12.1571543 8.6053719,11.9110605 8.6053719,11.6255508 C8.6053719,11.300584 8.5672314,11.0272969 8.49095041,10.8056484 Z M7.80433884,12.2301621 C7.75665289,12.3855703 7.69508264,12.4971738 7.61958678,12.5649727 C7.54409091,12.6328125 7.44913223,12.6809238 7.33471074,12.7093066 C7.24731405,12.7314141 7.10504132,12.7424473 6.90797521,12.7424473 L6.3811157,12.7424473 L6.3811157,10.444793 L6.69818182,10.444793 C6.98582645,10.444793 7.17896694,10.4558262 7.27747934,10.4779336 C7.40938017,10.5063164 7.51826446,10.5607441 7.60409091,10.6412168 C7.68991736,10.7216895 7.75665289,10.8336621 7.80433884,10.9772168 C7.85202479,11.1207715 7.87586777,11.3266289 7.87586777,11.5948301 C7.87586777,11.8629902 7.85202479,12.0747539 7.80433884,12.2301621 Z" id="Shape"></path>
                                <polygon id="Shape" points="11.6044215 10.444793 11.6044215 9.85794141 9.2085124 9.85794141 9.2085124 13.3269199 9.91417355 13.3269199 9.91417355 11.8527363 11.3731818 11.8527363 11.3731818 11.2658848 9.91417355 11.2658848 9.91417355 10.444793"></polygon>
                            </g>
                        </g>
                    </g>
                </g>
            </g>
        </g>
    </g>
</svg>