<?xml version="1.0" encoding="UTF-8"?>
<svg width="9px" height="13px" viewBox="0 0 9 13" version="1.1" xmlns="http://www.w3.org/2000/svg" xmlns:xlink="http://www.w3.org/1999/xlink">
    <!-- Generator: Sketch 52.4 (67378) - http://www.bohemiancoding.com/sketch -->
    <title>phone</title>
    <desc>Created with Sketch.</desc>
    <g id="Symbols" stroke="none" stroke-width="1" fill="none" fill-rule="evenodd">
        <g id="Шапки/Шапка-1200" transform="translate(-733.000000, -20.000000)" fill="#AA2935" fill-rule="nonzero">
            <g id="Шапка">
                <g id="Телефоны" transform="translate(732.000000, 0.000000)">
                    <g id="1">
                        <g id="Иконка" transform="translate(0.000000, 20.000000)">
                            <path d="M9.9746697,11.2546464 C10.0079654,11.6422801 9.76026425,12.1205594 9.42415144,12.317779 L8.5069548,12.8560087 C8.34326108,12.951501 7.93675356,12.9353573 7.9245168,12.9322679 C5.58046793,12.3610118 3.55015021,10.8914878 2.29400019,8.84977808 C1.03476589,6.80302542 0.660057171,4.35371454 1.25181099,2.05908487 C1.25214187,2.05773942 1.42711247,1.71064281 1.59080094,1.61517186 L2.5081604,1.07628015 C2.84427845,0.879039226 3.39299627,0.889963731 3.72781196,1.10067758 L3.87098743,1.19139926 C4.20510636,1.40193719 4.48863735,1.89171658 4.5002182,2.27953842 L4.54301273,3.71296159 C4.55443076,4.10144548 4.29184832,4.58447367 3.95570324,4.78173045 L3.34251818,5.14155993 C3.39401745,7.02443278 4.46222433,8.76072492 6.14050745,9.68980851 L6.75366549,9.32999489 C7.08980532,9.13275947 7.65047768,9.13325149 7.99633818,9.32547773 L9.27134038,10.0358164 C9.61601373,10.2270397 9.92587361,10.700784 9.96054108,11.0887639 L9.9746697,11.2546464 Z" id="phone"></path>
                        </g>
                    </g>
                </g>
            </g>
        </g>
    </g>
</svg>