<?xml version="1.0" encoding="UTF-8"?>
<svg width="30px" height="30px" viewBox="0 0 30 30" version="1.1" xmlns="http://www.w3.org/2000/svg" xmlns:xlink="http://www.w3.org/1999/xlink">
    <!-- Generator: Sketch 52.4 (67378) - http://www.bohemiancoding.com/sketch -->
    <title>play-button</title>
    <desc>Created with Sketch.</desc>
    <g id="Страницы" stroke="none" stroke-width="1" fill="none" fill-rule="evenodd">
        <g id="Главная-1200" transform="translate(-595.000000, -471.000000)" fill="#AA2935" fill-rule="nonzero">
            <g id="Слайдеры" transform="translate(360.000000, 221.000000)">
                <g id="1">
                    <g id="Проиграть" transform="translate(235.000000, 247.000000)">
                        <g id="play-button" transform="translate(0.000000, 3.000000)">
                            <path d="M21.0122449,14.4734694 L12.7408163,8.81632653 C12.4836735,8.62653061 11.7979592,8.62653061 11.7428571,9.34285714 L11.7428571,20.6571429 C11.8040816,21.3734694 12.5020408,21.3857143 12.7408163,21.1836735 L21.0122449,15.5265306 C21.2265306,15.3979592 21.5204082,14.8714286 21.0122449,14.4734694 Z M13.022449,19.4510204 L13.022449,10.5489796 L19.5183673,15 L13.022449,19.4510204 Z" id="Shape"></path>
                            <path d="M15,0 C6.72857143,0 0,6.72857143 0,15 C0,23.2714286 6.72857143,30 15,30 C23.2714286,30 30,23.2714286 30,15 C30,6.72857143 23.2714286,0 15,0 Z M15,28.7204082 C7.43265306,28.7204082 1.27959184,22.5673469 1.27959184,15 C1.27959184,7.43265306 7.43265306,1.27959184 15,1.27959184 C22.5673469,1.27959184 28.7204082,7.43265306 28.7204082,15 C28.7204082,22.5673469 22.5673469,28.7204082 15,28.7204082 Z" id="Shape"></path>
                        </g>
                    </g>
                </g>
            </g>
        </g>
    </g>
</svg>