<?xml version="1.0" encoding="UTF-8"?>
<svg width="12px" height="20px" viewBox="0 0 12 20" version="1.1" xmlns="http://www.w3.org/2000/svg" xmlns:xlink="http://www.w3.org/1999/xlink">
    <!-- Generator: Sketch 52.4 (67378) - http://www.bohemiancoding.com/sketch -->
    <title>quartz</title>
    <desc>Created with Sketch.</desc>
    <g id="Symbols" stroke="none" stroke-width="1" fill="none" fill-rule="evenodd">
        <g id="Механизм/Кварц" transform="translate(-8.000000, -7.000000)" fill="#0D0D0D" fill-rule="nonzero">
            <g id="Кварц">
                <path d="M19.9997936,21.3013401 C19.9997936,21.2486448 20.0020606,21.1969261 19.9801467,21.1459105 C19.9234728,21.0138013 19.7506804,20.9282936 19.5723466,20.9432545 C19.3898316,20.9586061 19.2431848,21.0766528 19.2299357,21.2185276 C19.21714,21.3560666 19.2289281,22.0940345 19.2289281,22.0940345 L17.0714418,22.0998939 L17.0619206,12.193225 L19.2228325,12.1930297 C19.2228325,12.1930297 19.2289281,19.4252874 19.2289281,19.6055997 C19.2289281,19.6383341 19.2287266,19.6711075 19.2289281,19.7039199 C19.229986,19.8700916 19.3944662,20.0118102 19.6143609,20.0118102 C19.8376308,20.0118102 19.9990883,19.8676697 19.9997936,19.7003652 C19.9999447,19.6617325 19.9997936,19.6230997 19.9997936,19.5844669 C19.9997936,19.3992328 19.9997936,12.2071313 19.9997936,12.0226783 C19.9997936,11.8982644 20.0091133,11.7858036 19.8882594,11.6838896 C19.7788411,11.591546 19.6657452,11.5016633 19.5545636,11.4106087 C19.3079189,11.2086167 14.2996107,7.10588685 14.2740696,7.08639468 C14.1080781,6.95940263 13.8588138,6.97838699 13.7042075,7.10424622 C13.5777618,7.2071758 8.30195282,11.5284601 8.15122549,11.6518975 C8.08875829,11.7030693 8.03198366,11.7543583 8.01082541,11.8266239 C8.00024629,11.8628348 8.0006493,11.89803 8.0006493,11.9345534 C8.0006493,12.0494752 8.0006493,12.1643188 8.0006493,12.2792406 C8.0006493,12.4946309 8.0006493,21.9328237 8.0006493,22.1260657 C8.0006493,22.2138391 7.99918837,22.3017296 8.0006493,22.3895029 C8.00211023,22.4770028 8.04195826,22.5541902 8.12175508,22.6164949 C8.15973917,22.6461433 8.19842854,22.6752839 8.23681564,22.7046588 C8.43353697,22.855479 13.3603356,26.6325842 13.5710617,26.7940684 C13.6177609,26.8298496 13.6644602,26.8656699 13.7112099,26.9014902 C13.8566476,27.0129744 14.0809251,27.0384431 14.2457075,26.9330917 C14.3512972,26.8656308 14.4443431,26.7827012 14.5414192,26.7082482 C14.7822202,26.523639 19.672546,22.7745025 19.8351119,22.6499323 C19.8983852,22.6014558 19.9566207,22.5540731 19.9833204,22.4845809 C20.0027658,22.4339169 19.999844,22.3822373 19.999844,22.3302061 C19.9997936,22.2571984 19.9997936,21.3735275 19.9997936,21.3013401 Z M18.7186617,11.5953741 L16.9254499,11.5953741 L15.2918317,8.78897094 L18.7186617,11.5953741 Z M14.0002718,8.02299522 L16.0796742,11.5953741 L11.9208191,11.5953741 L14.0002718,8.02299522 Z M12.708712,8.78897094 L11.0751441,11.5953741 L9.28193231,11.5953741 L12.708712,8.78897094 Z M8.77171628,12.1931078 L10.9386734,12.1931078 L10.9386734,12.7128338 C10.9386734,12.8779118 11.1112643,13.0117007 11.3241062,13.0117007 C11.5369985,13.0117007 11.7095389,12.8779118 11.7095389,12.7128338 L11.7095389,12.1931078 L16.2912062,12.1931078 L16.2912062,22.1000111 L11.7095389,22.1000111 L11.7095389,14.3067383 C11.7095389,14.1416604 11.5369481,14.0078715 11.3241062,14.0078715 C11.1112139,14.0078715 10.9386734,14.1416604 10.9386734,14.3067383 L10.9386734,22.099972 L8.77171628,22.1000111 L8.77171628,12.1931078 Z M14.0002718,26.0147724 L13.0093606,24.4211413 C12.9169192,24.2724306 12.6865462,24.2100869 12.4947618,24.2816884 C12.3030278,24.353368 12.2225257,24.5320006 12.3149671,24.6806723 L12.6832213,25.2728591 L9.32419842,22.6977057 L11.081945,22.6977057 L11.5946799,23.5223532 C11.6871213,23.671064 11.9175446,23.7334468 12.1092787,23.6618062 C12.3010127,23.5901266 12.3815148,23.411494 12.2890734,23.2628223 L11.9377457,22.6977448 L16.0628483,22.6977448 L14.0002718,26.0147724 Z M15.3173223,25.2728982 L16.9185987,22.6977448 L18.6763452,22.6977448 L15.3173223,25.2728982 Z" id="quartz"></path>
            </g>
        </g>
    </g>
</svg>