<?xml version="1.0" encoding="UTF-8"?>
<svg width="31px" height="25px" viewBox="0 0 31 25" version="1.1" xmlns="http://www.w3.org/2000/svg" xmlns:xlink="http://www.w3.org/1999/xlink">
    <!-- Generator: Sketch 52.4 (67378) - http://www.bohemiancoding.com/sketch -->
    <title>quote</title>
    <desc>Created with Sketch.</desc>
    <g id="Страницы" stroke="none" stroke-width="1" fill="none" fill-rule="evenodd">
        <g id="Статья-320" transform="translate(-20.000000, -4172.000000)" fill="#AA2935" fill-rule="nonzero">
            <g id="Контент" transform="translate(-20.000000, 214.000000)">
                <g id="Текст" transform="translate(0.000000, 675.000000)">
                    <g id="Цитата" transform="translate(40.000000, 3279.000000)">
                        <g id="quote" transform="translate(0.000000, 4.000000)">
                            <path d="M9.48277877,11.3299797 C8.75304065,11.1177054 8.02330253,11.0099982 7.31345505,11.0099982 C6.21729391,11.0099982 5.30263493,11.2630944 4.59340903,11.5730274 C5.27715003,9.04394956 6.91968239,4.68008139 10.1916939,4.18864773 C10.4947155,4.14311553 10.7430378,3.92173487 10.8257083,3.62373452 L11.5408392,1.03939006 C11.6011327,0.820835531 11.5653917,0.586894265 11.4420075,0.397229131 C11.3186234,0.207563996 11.1203385,0.0810159017 10.8981226,0.0502424197 C10.6566378,0.0169568166 10.410491,0 10.1665198,0 C6.2390493,0 2.34949539,4.14185947 0.708206193,10.0723491 C-0.255247035,13.5516366 -0.537756385,18.7825006 1.83544647,22.0749491 C3.16345797,23.9172759 5.10093133,24.9010852 7.59409965,24.999372 C7.60435577,24.999686 7.61430109,25 7.62455721,25 C10.7007701,25 13.4285859,22.9067752 14.2583989,19.9101289 C14.7541111,18.1186726 14.5300305,16.2399201 13.6268708,14.61866 C12.7333456,13.0156128 11.2617485,11.8471626 9.48277877,11.3299797 Z" id="Shape"></path>
                            <path d="M29.6267607,14.6187904 C28.7332244,13.0154493 27.2616089,11.8470138 25.482617,11.3298373 C24.7528698,11.1175658 24.0231226,11.00986 23.313577,11.00986 C22.2174023,11.00986 21.3024211,11.262953 20.5931864,11.572882 C21.2769359,9.04383596 22.9194887,4.68002261 26.1918517,4.18859511 C26.4948771,4.14306349 26.7428917,3.92168561 26.825874,3.623689 L27.5410138,1.039377 C27.6013081,0.820825221 27.5655667,0.586886893 27.442181,0.397224141 C27.319106,0.207561389 27.1208187,0.0810148841 26.8982893,0.0502417886 C26.6571122,0.0169566037 26.4109624,0 26.1666773,0 C22.2391579,0 18.3495555,4.14180745 16.7079351,10.0722226 C15.7447807,13.5514664 15.4622678,18.7822646 17.835811,22.0752999 C19.1635283,23.9172895 21.1013366,24.9014005 23.5942251,24.999372 C23.6044814,24.999686 23.6144268,25 23.6249939,25 C26.7009343,25 29.4290949,22.9068015 30.2589182,19.9101928 C30.754015,18.118759 30.5296208,16.2397161 29.6267607,14.6187904 Z" id="Shape"></path>
                        </g>
                    </g>
                </g>
            </g>
        </g>
    </g>
</svg>