<?xml version="1.0" encoding="UTF-8"?>
<svg width="20px" height="18px" viewBox="0 0 20 18" version="1.1" xmlns="http://www.w3.org/2000/svg" xmlns:xlink="http://www.w3.org/1999/xlink">
    <!-- Generator: Sketch 52.4 (67378) - http://www.bohemiancoding.com/sketch -->
    <title>refresh</title>
    <desc>Created with Sketch.</desc>
    <g id="Страницы" stroke="none" stroke-width="1" fill="none" fill-rule="evenodd">
        <g id="Главная-1200" transform="translate(-1520.000000, -241.000000)" fill="#0D0D0D">
            <g id="Слайдеры" transform="translate(360.000000, 221.000000)">
                <g id="2" transform="translate(816.000000, 0.000000)">
                    <g id="Обновить" transform="translate(344.000000, 20.000000)">
                        <g id="Shape">
                            <path d="M16.7563248,13.5953419 C16.4744017,13.3810684 16.072265,13.4359829 15.8580769,13.717906 C15.8169658,13.7720085 15.7748291,13.8254274 15.7317094,13.8782051 C15.0887179,14.665 14.2225214,15.3038462 13.1538889,15.7788034 C13.1485897,15.7811538 13.1433333,15.783547 13.1381197,15.7860684 C11.4519658,16.590812 9.47923077,16.700812 7.58700855,16.0969231 C5.92568376,15.5560256 4.57397436,14.5088034 3.56918803,12.9842308 C2.82294872,11.7877778 2.43188034,10.4873077 2.40405983,9.11568376 C2.40337607,9.08230769 2.4034188,9.04884615 2.40316239,9.01542735 L3.18957265,9.01542735 C3.48525641,9.01542735 3.63333333,8.65794872 3.42423077,8.44888889 L1.9957265,7.02038462 C1.86611111,6.89076923 1.65598291,6.89076923 1.52636752,7.02038462 L0.0978632479,8.44888889 C-0.111196581,8.65794872 0.0368803419,9.01542735 0.332521368,9.01542735 L1.12008547,9.01542735 C1.13034188,10.6702137 1.58944444,12.2355556 2.48602564,13.6701282 C2.48867521,13.674359 2.49136752,13.6785043 2.49405983,13.6826923 C3.66311966,15.4596581 5.24307692,16.682094 7.19367521,17.3171368 C8.1282906,17.6153846 9.08051282,17.7635897 10.018547,17.7635897 C11.2934615,17.763547 12.5418376,17.4897863 13.6825214,16.9467949 C15.0187179,16.3515385 16.0941453,15.5261538 16.8788034,14.4935897 C17.0930342,14.2117094 17.0381624,13.8095726 16.7563248,13.5953419 Z" fill-rule="nonzero"></path>
                            <path d="M19.6619658,8.88358974 L18.8744444,8.88358974 C18.8744017,8.70786325 18.869188,8.53012821 18.8588889,8.35529915 C18.7771368,6.97021368 18.3645299,5.60632479 17.6656838,4.41106838 C16.9842735,3.24564103 16.0292735,2.23448718 14.9038889,1.48688034 C13.7597009,0.726752137 12.4349145,0.237905983 11.072735,0.0732478632 C9.55880342,-0.109786325 8.01923077,0.0979487179 6.62038462,0.673760684 C5.24858974,1.2384188 4.02837607,2.14905983 3.09166667,3.30722222 C2.86901709,3.5824359 2.9117094,3.98611111 3.18692308,4.20876068 C3.46222222,4.43136752 3.86581197,4.38871795 4.08846154,4.11346154 C4.13632479,4.0542735 4.18521368,3.99594017 4.23478632,3.93824786 C5.0157265,3.03 6.00478632,2.31363248 7.10837607,1.85935897 C8.30474359,1.36692308 9.62247863,1.18935897 10.9188889,1.34606838 C12.0834188,1.48683761 13.2160684,1.90478632 14.1944444,2.55478632 C15.1579487,3.19491453 15.9755983,4.06051282 16.5589316,5.05820513 C17.1563675,6.08 17.5091453,7.24623932 17.5790598,8.4308547 C17.5835043,8.50619658 17.5868376,8.58213675 17.5891026,8.65820513 C17.5913248,8.7334188 17.5923932,8.80871795 17.5924359,8.88363248 L16.805,8.88363248 C16.5093162,8.88363248 16.3612393,9.24111111 16.5703419,9.45017094 L17.9988462,10.8786752 C18.1284615,11.0082906 18.3385897,11.0082906 18.4682051,10.8786752 L19.8967094,9.45017094 C20.1056838,9.24106838 19.9576068,8.88358974 19.6619658,8.88358974 Z" fill-rule="nonzero"></path>
                        </g>
                    </g>
                </g>
            </g>
        </g>
    </g>
</svg>