<?xml version="1.0" encoding="UTF-8"?>
<svg width="20px" height="22px" viewBox="0 0 20 22" version="1.1" xmlns="http://www.w3.org/2000/svg" xmlns:xlink="http://www.w3.org/1999/xlink">
    <!-- Generator: Sketch 52.4 (67378) - http://www.bohemiancoding.com/sketch -->
    <title>remove</title>
    <desc>Created with Sketch.</desc>
    <g id="Страницы" stroke="none" stroke-width="1" fill="none" fill-rule="evenodd">
        <g id="Оформление-заказа-1200" transform="translate(-1499.000000, -396.000000)" fill="#A4A3A3">
            <g id="Контент" transform="translate(360.000000, 258.000000)">
                <g id="Товары" transform="translate(0.000000, 67.000000)">
                    <g id="1" transform="translate(25.000000, 45.000000)">
                        <g id="Корзина" transform="translate(1114.000000, 26.000000)">
                            <g id="garbage">
                                <path d="M19.3548387,3.16221766 L14.6912442,3.16221766 L14.6912442,2.41683778 C14.6912442,1.08418891 13.5852535,0 12.2258065,0 L7.79262673,0 C6.43317972,0 5.32718894,1.08418891 5.32718894,2.41683778 L5.32718894,3.16221766 L0.66359447,3.16221766 C0.31797235,3.16221766 0.0414746544,3.43326489 0.0414746544,3.77207392 C0.0414746544,4.11088296 0.31797235,4.38193018 0.66359447,4.38193018 L1.78801843,4.38193018 L1.78801843,18.7112936 C1.78801843,20.5092402 3.28110599,21.9728953 5.11520737,21.9728953 L14.9032258,21.9728953 C16.7373272,21.9728953 18.2304147,20.5092402 18.2304147,18.7112936 L18.2304147,4.38193018 L19.3548387,4.38193018 C19.7004608,4.38193018 19.9769585,4.11088296 19.9769585,3.77207392 C19.9769585,3.43326489 19.7004608,3.16221766 19.3548387,3.16221766 Z M6.57142857,2.41683778 C6.57142857,1.75728953 7.11981567,1.21971253 7.79262673,1.21971253 L12.2258065,1.21971253 C12.8986175,1.21971253 13.4470046,1.75728953 13.4470046,2.41683778 L13.4470046,3.16221766 L6.57142857,3.16221766 L6.57142857,2.41683778 Z M16.9861751,18.7112936 C16.9861751,19.8361396 16.0506912,20.7531828 14.9032258,20.7531828 L5.11520737,20.7531828 C3.96774194,20.7531828 3.03225806,19.8361396 3.03225806,18.7112936 L3.03225806,4.38193018 L16.9907834,4.38193018 L16.9907834,18.7112936 L16.9861751,18.7112936 Z" id="Shape" fill-rule="nonzero"></path>
                                <path d="M10.0092166,18.5667351 C10.3548387,18.5667351 10.6313364,18.2956879 10.6313364,17.9568789 L10.6313364,7.17823409 C10.6313364,6.83942505 10.3548387,6.56837782 10.0092166,6.56837782 C9.66359447,6.56837782 9.38709677,6.83942505 9.38709677,7.17823409 L9.38709677,17.9523614 C9.38709677,18.2911704 9.66359447,18.5667351 10.0092166,18.5667351 Z" id="Shape" fill-rule="nonzero"></path>
                                <path d="M5.94930876,17.8936345 C6.29493088,17.8936345 6.57142857,17.6225873 6.57142857,17.2837782 L6.57142857,7.84681725 C6.57142857,7.50800821 6.29493088,7.23696099 5.94930876,7.23696099 C5.60368664,7.23696099 5.32718894,7.50800821 5.32718894,7.84681725 L5.32718894,17.2837782 C5.32718894,17.6225873 5.60829493,17.8936345 5.94930876,17.8936345 Z" id="Shape" fill-rule="nonzero"></path>
                                <path d="M14.0691244,17.8936345 C14.4147465,17.8936345 14.6912442,17.6225873 14.6912442,17.2837782 L14.6912442,7.84681725 C14.6912442,7.50800821 14.4147465,7.23696099 14.0691244,7.23696099 C13.7235023,7.23696099 13.4470046,7.50800821 13.4470046,7.84681725 L13.4470046,17.2837782 C13.4470046,17.6225873 13.7235023,17.8936345 14.0691244,17.8936345 Z" id="Shape" fill-rule="nonzero"></path>
                            </g>
                        </g>
                    </g>
                </g>
            </g>
        </g>
    </g>
</svg>