<?xml version="1.0" encoding="UTF-8"?>
<svg width="16px" height="16px" viewBox="0 0 16 16" version="1.1" xmlns="http://www.w3.org/2000/svg" xmlns:xlink="http://www.w3.org/1999/xlink">
    <!-- Generator: Sketch 52.4 (67378) - http://www.bohemiancoding.com/sketch -->
    <title>search</title>
    <desc>Created with Sketch.</desc>
    <g id="Страницы" stroke="none" stroke-width="1" fill="none" fill-rule="evenodd">
        <g id="Главная-1200" transform="translate(-390.000000, -180.000000)" fill="#FFFFFF" fill-rule="nonzero">
            <g id="Меню-2" transform="translate(360.000000, 155.000000)">
                <g id="Поиск" transform="translate(30.000000, 25.000000)">
                    <path d="M15.8594308,15.1831932 L11.9713981,11.2951606 C13.0143558,10.096114 13.6458063,8.5316775 13.6458063,6.82179452 C13.6458063,3.05792349 10.5843354,0 6.82401182,0 C3.06014079,0 0.0022172949,3.06147097 0.0022172949,6.82179452 C0.0022172949,10.5821181 3.06368826,13.643589 6.82401182,13.643589 C8.53389479,13.643589 10.0983313,13.0121385 11.2973779,11.9691808 L15.1854105,15.8572135 C15.2776449,15.9494478 15.4018065,15.9991125 15.5224206,15.9991125 C15.6430348,15.9991125 15.7671964,15.9529953 15.8594308,15.8572135 C16.0438995,15.6727448 16.0438995,15.3676619 15.8594308,15.1831932 Z M0.956488083,6.82179452 C0.956488083,3.58649728 3.58871457,0.957818263 6.82046434,0.957818263 C10.0557616,0.957818263 12.6844406,3.59004475 12.6844406,6.82179452 C12.6844406,10.0535443 10.0557616,12.6893183 6.82046434,12.6893183 C3.58871457,12.6893183 0.956488083,10.0570918 0.956488083,6.82179452 Z" id="search"></path>
                </g>
            </g>
        </g>
    </g>
</svg>