<?xml version="1.0" encoding="UTF-8"?>
<svg width="18px" height="14px" viewBox="0 0 18 14" version="1.1" xmlns="http://www.w3.org/2000/svg" xmlns:xlink="http://www.w3.org/1999/xlink">
    <!-- Generator: Sketch 52.4 (67378) - http://www.bohemiancoding.com/sketch -->
    <title>social-youtube</title>
    <desc>Created with Sketch.</desc>
    <g id="Symbols" stroke="none" stroke-width="1" fill="none" fill-rule="evenodd">
        <g id="Соцсети" transform="translate(-58.000000, -2.000000)" fill="#A4A3A3" fill-rule="nonzero">
            <g id="social-youtube">
                <g transform="translate(58.000000, 2.000000)">
                    <path d="M11.74767,6.16982122 L7.77878288,3.9366543 C7.55057565,3.80825146 7.28083881,3.81304364 7.0571546,3.94933956 C6.83333333,4.08577642 6.69983551,4.32679605 6.69983551,4.59431379 L6.69983551,9.02230992 C6.69983551,9.28855911 6.83251095,9.52915593 7.05482456,9.66573372 C7.17091558,9.73705301 7.29961621,9.77285357 7.42859102,9.77285357 C7.54673793,9.77285357 7.66515898,9.74283183 7.77412281,9.68250644 L11.7431469,7.48781813 C11.9787555,7.35744201 12.1258224,7.10556942 12.1269189,6.83029961 C12.1278783,6.55502981 11.9825932,6.30202964 11.74767,6.16982122 Z M7.75260418,8.46528673 L7.75260418,5.15584729 L10.7188871,6.82494364 L7.75260418,8.46528673 Z" id="Shape"></path>
                    <path d="M17.8327851,3.30253303 L17.8319627,3.2940762 C17.8167489,3.14537693 17.6652961,1.82272874 17.0400219,1.14998793 C16.3172972,0.358710526 15.4979441,0.262584577 15.1038926,0.216494845 C15.0712719,0.212689263 15.0413926,0.209165593 15.0146656,0.205500948 L14.9832785,0.202118216 C12.6082785,0.0245248247 9.02151863,0.00028189433 8.98560856,0.000140947165 L8.98245614,0 L8.97930372,0.000140947165 C8.94339365,0.00028189433 5.35663375,0.0245248247 2.96025221,0.202118216 L2.92859102,0.205500948 C2.90309758,0.209024655 2.875,0.212266412 2.8444353,0.215931057 C2.45490681,0.262161727 1.64432565,0.358428649 0.919544947,1.1783183 C0.324013158,1.84387079 0.151864035,3.13818862 0.134183123,3.28364609 L0.132127193,3.30253303 C0.126781789,3.36440885 -5.68434189e-14,4.83744764 -5.68434189e-14,6.31626529 L-5.68434189e-14,7.69867509 C-5.68434189e-14,9.17749274 0.126781789,10.6505316 0.132127193,10.7125483 L0.133086632,10.7218509 C0.148300421,10.868154 0.299616211,12.1665593 0.92201207,12.839582 C1.60156249,13.6043613 2.46080042,13.7055614 2.92297151,13.759967 C2.99602523,13.7685648 3.05893642,13.775894 3.10183663,13.7836461 L3.14336625,13.7895659 C4.51466558,13.9237476 8.81414474,13.9898518 8.99643642,13.9925298 L9.00191888,13.9926707 L9.00740133,13.9925298 C9.0433114,13.9923888 12.6299342,13.968146 15.0049342,13.7905525 L15.0363213,13.7871698 C15.0663377,13.7830823 15.1000548,13.7794177 15.1370614,13.7754712 C15.5243969,13.733187 16.3305921,13.6453769 17.0453673,12.8366221 C17.6408991,12.1709286 17.8131853,10.8766108 17.8307292,10.7312943 L17.8327851,10.7124074 C17.8381305,10.6503906 17.9650493,9.17749274 17.9650493,7.69867509 L17.9650493,6.31626529 C17.9649123,4.83744764 17.8381305,3.36454978 17.8327851,3.30253303 Z M16.9121436,7.69867509 C16.9121436,9.06741302 16.7959156,10.4770256 16.7849507,10.6064151 C16.7402686,10.9628705 16.5586623,11.7817735 16.2685033,12.106093 C15.8211349,12.6122342 15.361568,12.6624114 15.0260417,12.6989167 C14.9854715,12.7032861 14.9479167,12.7075145 14.9139254,12.7118839 C12.6167763,12.8827118 9.16543312,12.908928 9.00644189,12.9099146 C8.82812498,12.9072366 4.59155702,12.8405686 3.2620614,12.7135752 C3.19394189,12.7021585 3.12033993,12.6934198 3.04276316,12.6843991 C2.64925986,12.6380275 2.11060856,12.5746013 1.69640898,12.106093 L1.68667761,12.095381 C1.40158989,11.7899485 1.22519189,11.0241825 1.18037281,10.6106435 C1.17201207,10.5128262 1.05276863,9.08658183 1.05276863,7.69867509 L1.05276863,6.31626529 C1.05276863,4.94907779 1.1687226,3.54101563 1.17996161,3.40894811 C1.23327853,2.98906654 1.4183114,2.21977689 1.69640898,1.90884746 C2.15748354,1.38734295 2.64364035,1.3295546 2.96518639,1.29135791 C2.99588814,1.2876933 3.024534,1.28431057 3.05098684,1.2807869 C5.38157895,1.10911323 8.85773025,1.0836018 8.98245614,1.08261516 C9.10718204,1.08346087 12.5820998,1.10911323 14.8919956,1.2807869 C14.9203673,1.28445151 14.9513432,1.28811615 14.9846491,1.29206267 C15.3153783,1.33082311 15.8152412,1.38945713 16.2739858,1.89263853 L16.2782347,1.89728978 C16.5633224,2.20272229 16.7397204,2.98187822 16.7845395,3.40373308 C16.7924891,3.49605348 16.9121436,4.92539867 16.9121436,6.31626529 L16.9121436,7.69867509 Z" id="Shape"></path>
                </g>
            </g>
        </g>
    </g>
</svg>