<?xml version="1.0" encoding="UTF-8"?>
<svg width="18px" height="18px" viewBox="0 0 18 18" version="1.1" xmlns="http://www.w3.org/2000/svg" xmlns:xlink="http://www.w3.org/1999/xlink">
    <!-- Generator: Sketch 52.4 (67378) - http://www.bohemiancoding.com/sketch -->
    <title>social-instagram</title>
    <desc>Created with Sketch.</desc>
    <g id="Symbols" stroke="none" stroke-width="1" fill="none" fill-rule="evenodd">
        <g id="Соцсети" fill="#A4A3A3" fill-rule="nonzero">
            <g id="social-instagram">
                <g>
                    <path d="M13.1275635,0 L4.87243652,0 C2.18572998,0 0,2.18572998 0,4.87243652 L0,13.1277008 C0,15.81427 2.18572998,18 4.87243652,18 L13.1277008,18 C15.81427,18 18,15.81427 18,13.1277008 L18,4.87243652 C18,2.18572998 15.81427,9.99200722e-16 13.1275635,0 Z M16.9447632,13.1277008 C16.9447632,15.2324066 15.2324066,16.9447632 13.1275635,16.9447632 L4.87243652,16.9447632 C2.76759338,16.9447632 1.05523682,15.2324066 1.05523682,13.1277008 L1.05523682,4.87243652 C1.05523682,2.76759338 2.76759338,1.05523682 4.87243652,1.05523682 L13.1277008,1.05523682 C15.2324066,1.05523682 16.9447632,2.76759338 16.9447632,4.87243652 L16.9447632,13.1277008 Z" id="Shape"></path>
                    <path d="M9,4.07826232 C6.28610231,4.07826232 4.07826232,6.28610231 4.07826232,9 C4.07826232,11.7138977 6.28610231,13.9217377 9,13.9217377 C11.7138977,13.9217377 13.9217377,11.7138977 13.9217377,9 C13.9217377,6.28610231 11.7138977,4.07826232 9,4.07826232 Z M9,12.8665009 C6.86810303,12.8665009 5.13349914,11.1320343 5.13349914,9 C5.13349914,6.86810303 6.86810303,5.13349914 9,5.13349914 C11.1320343,5.13349914 12.8665009,6.86810303 12.8665009,9 C12.8665009,11.1320343 11.1320343,12.8665009 9,12.8665009 Z" id="Shape"></path>
                    <path d="M14.0394287,2.33033752 C13.2374268,2.33033752 12.5851135,2.98278809 12.5851135,3.78465272 C12.5851135,4.58665467 13.2374268,5.23910524 14.0394287,5.23910524 C14.8414307,5.23910524 15.4938812,4.58665467 15.4938812,3.78465272 C15.4938812,2.98265077 14.8414307,2.33033752 14.0394287,2.33033752 Z M14.0394287,4.18373107 C13.8194275,4.18373107 13.6403504,4.00465392 13.6403504,3.78465272 C13.6403504,3.56451416 13.8194275,3.38557433 14.0394287,3.38557433 C14.2595673,3.38557433 14.4386444,3.56451416 14.4386444,3.78465272 C14.4386444,4.00465392 14.2595673,4.18373107 14.0394287,4.18373107 Z" id="Shape"></path>
                </g>
            </g>
        </g>
    </g>
</svg>