<?xml version="1.0" encoding="UTF-8"?>
<svg width="10px" height="18px" viewBox="0 0 10 18" version="1.1" xmlns="http://www.w3.org/2000/svg" xmlns:xlink="http://www.w3.org/1999/xlink">
    <!-- Generator: Sketch 52.4 (67378) - http://www.bohemiancoding.com/sketch -->
    <title>social-facebook</title>
    <desc>Created with Sketch.</desc>
    <g id="Symbols" stroke="none" stroke-width="1" fill="none" fill-rule="evenodd">
        <g id="Соцсети" transform="translate(-34.000000, 0.000000)" fill="#A4A3A3" fill-rule="nonzero">
            <g id="social-facebook">
                <g transform="translate(34.000000, 0.000000)">
                    <path d="M6.16438356,18 L3.35643192,18 C2.88741438,18 2.50588613,17.6083374 2.50588613,17.1268616 L2.50588613,10.6251526 L0.86766911,10.6251526 C0.398651541,10.6251526 0.0171232877,10.2333527 0.0171232877,9.75201416 L0.0171232877,6.96601867 C0.0171232877,6.48454286 0.398651541,6.09288026 0.86766911,6.09288026 L2.50588613,6.09288026 L2.50588613,4.69775391 C2.50588613,3.31443787 2.92901863,2.13752746 3.72939856,1.29446409 C4.53339041,0.447555551 5.6569724,0 6.97867616,0 L9.12015733,0.00357053906 C9.58837223,0.00439453125 9.96923158,0.396057129 9.96923158,0.876708984 L9.96923158,3.46343994 C9.96923158,3.94491579 9.58783712,4.33657835 9.11895336,4.33657835 L7.67711901,4.3371277 C7.23739832,4.3371277 7.12542808,4.42762755 7.10148223,4.45536805 C7.06201842,4.50137327 7.01506315,4.63142394 7.01506315,4.99053955 L7.01506315,6.09274294 L9.01059503,6.09274294 C9.16082514,6.09274294 9.30637308,6.13078309 9.43145336,6.20246886 C9.7012789,6.35723877 9.8690336,6.64988709 9.8690336,6.96615602 L9.86796339,9.75215148 C9.86796339,10.2333527 9.48643514,10.6250153 9.0174176,10.6250153 L7.01506315,10.6250153 L7.01506315,17.1268616 C7.01506315,17.6083374 6.6334011,18 6.16438356,18 Z M3.53381849,16.9447632 L5.98699699,16.9447632 L5.98699699,10.1527405 C5.98699699,9.83125304 6.24183969,9.56977843 6.55487479,9.56977843 L8.84003103,9.56977843 L8.84096747,7.14811707 L6.55474103,7.14811707 C6.24170589,7.14811707 5.98699699,6.88664246 5.98699699,6.56515505 L5.98699699,4.99053955 C5.98699699,4.57827757 6.0277986,4.10943604 6.33093428,3.75704958 C6.69721212,3.33105469 7.27445418,3.28189085 7.67685144,3.28189085 L8.94129925,3.28134157 L8.94129925,1.05853271 L6.97787349,1.05523682 C4.85378318,1.05523682 3.53381849,2.4510498 3.53381849,4.69775391 L3.53381849,6.56515505 C3.53381849,6.88650511 3.27910959,7.14811707 2.96607449,7.14811707 L1.04505565,7.14811707 L1.04505565,9.56977843 L2.96607449,9.56977843 C3.27910959,9.56977843 3.53381849,9.83125304 3.53381849,10.1527405 L3.53381849,16.9447632 Z M9.11815068,1.05880739 L9.11854128,1.05880739 L9.11815068,1.05880739 Z" id="Shape"></path>
                </g>
            </g>
        </g>
    </g>
</svg>