<?xml version="1.0" encoding="UTF-8"?>
<svg width="37px" height="40px" viewBox="0 0 37 40" version="1.1" xmlns="http://www.w3.org/2000/svg" xmlns:xlink="http://www.w3.org/1999/xlink">
    <!-- Generator: Sketch 52.4 (67378) - http://www.bohemiancoding.com/sketch -->
    <title>Shape</title>
    <desc>Created with Sketch.</desc>
    <g id="Symbols" stroke="none" stroke-width="1" fill="none" fill-rule="evenodd">
        <g id="Преимущества" transform="translate(-630.000000, 0.000000)" fill="#A4A3A3" fill-rule="nonzero">
            <g id="3">
                <g transform="translate(630.000000, 0.000000)">
                    <g id="stamp">
                        <path d="M34.7621607,25.9986667 L24.4457679,25.9986667 L24.4457679,21.9986667 L21.8029107,21.9986667 L21.8029107,17.8373333 C21.8029107,16.412 22.4120893,15.0733333 23.4322321,14.2546667 C25.3364107,12.7286667 26.4279107,10.448 26.4279107,7.99866667 C26.4279107,5.72133333 25.4612857,3.54533333 23.7764643,2.02866667 C22.0929643,0.512666667 19.8286964,-0.209333333 17.5697143,0.0526666667 C14.0329107,0.458666667 11.1204821,3.334 10.6447679,6.88866667 C10.2681607,9.70466667 11.3431429,12.444 13.5208571,14.2173333 C14.5694107,15.0713333 15.1957679,16.4706667 15.1957679,17.9593333 L15.1957679,21.9986667 L12.5529107,21.9986667 L12.5529107,25.9986667 L2.23651786,25.9986667 C1.36767857,25.9986667 0.660053571,26.712 0.660053571,27.5893333 L0.660053571,35.0753333 C0.660053571,35.952 1.36701786,36.666 2.23651786,36.666 L2.70232143,36.666 C3.01814286,38.5546667 4.64614286,39.9993333 6.60714286,39.9993333 L30.3928571,39.9993333 C32.3531964,39.9993333 33.9811964,38.5546667 34.2976786,36.666 L34.7634821,36.666 C35.6323214,36.666 36.3399464,35.9526667 36.3399464,35.0753333 L36.3399464,27.5893333 C36.338625,26.7126667 35.6316607,25.9986667 34.7621607,25.9986667 Z M14.3507143,13.18 C12.5357321,11.702 11.6398036,9.41666667 11.9549643,7.06733333 C12.3513929,4.10866667 14.7762143,1.71666667 17.7203571,1.37733333 C19.6357679,1.16 21.473875,1.742 22.8970536,3.024 C24.3017321,4.288 25.1071429,6.10133333 25.1071429,7.99933333 C25.1071429,10.04 24.1973393,11.9393333 22.6109643,13.2113333 C21.2578214,14.2966667 20.4821429,15.9826667 20.4821429,17.8373333 L20.4821429,21.9986667 L16.5178571,21.9986667 L16.5178571,17.96 C16.5171964,16.044 15.7276429,14.3013333 14.3507143,13.18 Z M13.8743393,23.332 L15.1957679,23.332 L21.8029107,23.332 L23.1243393,23.332 L23.1243393,25.9986667 L13.8743393,25.9986667 L13.8743393,23.332 Z M30.3921964,38.6653333 L6.60648214,38.6653333 C5.37755357,38.6653333 4.34089286,37.8146667 4.04753571,36.6653333 L32.9511429,36.6653333 C32.6577857,37.8146667 31.6217857,38.6653333 30.3921964,38.6653333 Z M35.0171964,35.0753333 C35.0171964,35.2173333 34.9028929,35.3326667 34.7621607,35.3326667 L34.3564821,35.3326667 L2.64219643,35.3326667 L2.23651786,35.3326667 C2.09578571,35.3326667 1.98148214,35.2173333 1.98148214,35.0753333 L1.98148214,27.5893333 C1.98148214,27.4473333 2.09578571,27.332 2.23651786,27.332 L12.5529107,27.332 L24.4457679,27.332 L34.7621607,27.332 C34.9028929,27.332 35.0171964,27.4473333 35.0171964,27.5893333 L35.0171964,35.0753333 Z" id="Shape"></path>
                    </g>
                </g>
            </g>
        </g>
    </g>
</svg>