<?xml version="1.0" encoding="UTF-8"?>
<svg width="24px" height="24px" viewBox="0 0 24 24" version="1.1" xmlns="http://www.w3.org/2000/svg" xmlns:xlink="http://www.w3.org/1999/xlink">
    <!-- Generator: Sketch 52.4 (67378) - http://www.bohemiancoding.com/sketch -->
    <title>user</title>
    <desc>Created with Sketch.</desc>
    <g id="Страницы" stroke="none" stroke-width="1" fill="none" fill-rule="evenodd">
        <g id="Статья-1200" transform="translate(-418.000000, -3780.000000)" fill="#AA2935" fill-rule="nonzero">
            <g id="Контент" transform="translate(360.000000, 221.000000)">
                <g id="Комментарии" transform="translate(40.000000, 3480.000000)">
                    <g id="1" transform="translate(0.000000, 62.000000)">
                        <g id="Аватар">
                            <path d="M40.3031649,34.25225 C39.5947899,33.5440625 38.4094149,32.925875 36.5407899,31.9911875 C35.5987899,31.5201875 34.0309149,30.736625 33.6508524,30.37775 C35.2425399,28.421375 36.1663524,26.2116875 36.1663524,24.2774375 C36.1663524,22.9649375 36.1663524,21.331625 35.4317274,19.8749375 C34.7694774,18.563 33.2895399,17 30.0004149,17 C26.7105399,17 25.2306024,18.563 24.5691024,19.87475 C23.8335399,21.331625 23.8335399,22.96475 23.8335399,24.27725 C23.8335399,26.21225 24.7566024,28.421375 26.3492274,30.3775625 C25.9682274,30.7371875 24.4005399,31.5209375 23.4585399,31.991 C21.5904774,32.9255 20.4051024,33.5436875 19.6961649,34.2520625 C18.1269774,35.822375 18.0082899,38.4569375 18.0002274,38.9695625 C17.9921649,39.5043125 18.1987899,40.02125 18.5752899,40.4035625 C18.9502899,40.784375 19.4646024,40.9998125 19.9993524,40.9998125 L39.9997899,40.9998125 C40.5360399,40.9998125 41.0490399,40.7845625 41.4247899,40.4035625 C41.8005399,40.02125 42.0079149,39.504125 41.9998524,38.9688125 C41.9917899,38.457125 41.8721649,35.8225625 40.3031649,34.25225 Z M40.3566024,39.3505625 C40.2613524,39.4465625 40.1346024,39.5 39.9997899,39.5 L19.9993524,39.5 C19.8667899,39.5 19.7372274,39.4458125 19.6440399,39.3505625 C19.5510399,39.2560625 19.4983524,39.12575 19.4996649,38.9924375 C19.5039774,38.7411875 19.5729774,36.49775 20.7568524,35.3135 C21.3034149,34.767125 22.4475399,34.174625 24.1296024,33.3329375 C25.9251024,32.43575 26.9207274,31.901 27.3793524,31.4675 L28.3916649,30.5103125 L27.5126649,29.4306875 C26.1281649,27.7300625 25.3333524,25.8513125 25.3333524,24.2774375 C25.3333524,23.06375 25.3333524,21.689 25.9076649,20.550875 C26.5954149,19.19 27.9711024,18.5 30.0004149,18.5 C32.0280399,18.5 33.4052274,19.19 34.0924149,20.550125 C34.6667274,21.689 34.6667274,23.06375 34.6667274,24.2774375 C34.6667274,25.85075 33.8726649,27.7293125 32.4864774,29.4306875 L31.6074774,30.5110625 L32.6199774,31.4676875 C33.0784149,31.900625 34.0732899,32.4351875 35.8695399,33.333125 C37.5516024,34.173875 38.6957274,34.7665625 39.2422899,35.3136875 C40.2056649,36.276875 40.4861649,38.0793125 40.4992899,38.992625 C40.5017274,39.12575 40.4496024,39.2560625 40.3566024,39.3505625 Z" id="user"></path>
                        </g>
                    </g>
                </g>
            </g>
        </g>
    </g>
</svg>