<?xml version="1.0" encoding="UTF-8"?>
<svg width="113px" height="40px" viewBox="0 0 113 40" version="1.1" xmlns="http://www.w3.org/2000/svg" xmlns:xlink="http://www.w3.org/1999/xlink">
    <!-- Generator: Sketch 52.4 (67378) - http://www.bohemiancoding.com/sketch -->
    <title>btn-pointer-bg</title>
    <desc>Created with Sketch.</desc>
    <g id="Страницы" stroke="none" stroke-width="1" fill="none" fill-rule="evenodd">
        <g id="Контакты-1200" transform="translate(-891.000000, -927.000000)" fill="#AA2935" fill-rule="nonzero">
            <g id="Контент" transform="translate(358.000000, 258.000000)">
                <g id="Адрес" transform="translate(0.000000, 623.000000)">
                    <g id="На-карте" transform="translate(533.000000, 46.000000)">
                        <path d="M4,1 C2.34314575,1 1,2.34314575 1,4 L1,36 C1,37.6568542 2.34314575,39 4,39 L100.527864,39 C101.66418,39 102.70297,38.3579929 103.211146,37.3416408 L111.211146,21.3416408 C111.633437,20.4970583 111.633437,19.5029417 111.211146,18.6583592 L103.211146,2.65835921 C102.70297,1.64200713 101.66418,1 100.527864,1 L4,1 Z M4,-3.58720604e-15 L100.527864,-9.19264664e-14 C102.042952,-8.68221089e-14 103.428005,0.856009505 104.105573,2.21114562 L112.105573,18.2111456 C112.668628,19.3372556 112.668628,20.6627444 112.105573,21.7888544 L104.105573,37.7888544 C103.428005,39.1439905 102.042952,40 100.527864,40 L4,40 C1.790861,40 6.42046992e-16,38.209139 -3.55271368e-15,36 L3.55271368e-15,4 C3.28217218e-15,1.790861 1.790861,2.36792184e-15 4,-3.58720604e-15 Z" id="btn-pointer-bg"></path>
                    </g>
                </g>
            </g>
        </g>
    </g>
</svg>