<?xml version="1.0" encoding="UTF-8"?>
<svg width="40px" height="46px" viewBox="0 0 40 46" version="1.1" xmlns="http://www.w3.org/2000/svg" xmlns:xlink="http://www.w3.org/1999/xlink">
    <!-- Generator: Sketch 52.4 (67378) - http://www.bohemiancoding.com/sketch -->
    <title>russia-pentagram</title>
    <desc>Created with Sketch.</desc>
    <g id="Страницы" stroke="none" stroke-width="1" fill="none" fill-rule="evenodd">
        <g id="История-компании-1200" transform="translate(-1422.000000, -3365.000000)" fill-rule="nonzero">
            <g id="Контент" transform="translate(360.000000, 221.000000)">
                <g id="Блоки" transform="translate(0.000000, 3057.000000)">
                    <g id="В-России" transform="translate(740.000000, 50.000000)">
                        <g id="Тайтл" transform="translate(48.000000, 37.000000)">
                            <g id="russia-pentagram" transform="translate(274.000000, 0.000000)">
                                <path d="M39.9511013,30.1154185 L39.9485463,14.9948018 L39.9481938,12.8287225 C39.9479295,11.7179736 39.3553304,10.6917181 38.3932159,10.1364758 L21.550837,0.416299559 C20.5888987,-0.138942731 19.4037004,-0.13876652 18.4418502,0.416828194 L1.60264317,10.1425551 C0.640792952,10.6980617 0.0484581498,11.7244934 0.0485462555,12.8352423 L0.0488986784,14.9947137 L0.0514537445,30.1153304 L0.0518061674,32.2814097 C0.0519823789,33.3920705 0.644669604,34.418326 1.60669604,34.9735683 L18.4490749,44.6938326 C19.4110132,45.2490749 20.5962115,45.2487225 21.5580617,44.693304 L38.3972687,34.9674009 C39.3591189,34.4118943 39.9514537,33.3854626 39.9513656,32.2746256 L39.9511013,30.1154185 Z" id="Shape" fill="#F5F5F5"></path>
                                <polygon id="Shape" fill="#41479B" points="39.9486344 14.9948018 0.0489867841 14.9948018 0.0515418502 30.1154185 19.8899559 32.4642291 39.9511013 30.1154185"></polygon>
                                <path d="M39.9511013,30.1154185 L0.0515418502,30.1154185 L0.0518942731,32.2814978 C0.0521585903,33.3922467 0.644757709,34.4185022 1.60687225,34.9737445 L18.4492511,44.6940088 C19.4111894,45.2492511 20.5963877,45.2488987 21.5582379,44.6934802 L38.3974449,34.9675771 C39.3592952,34.4120705 39.95163,33.3856388 39.9515419,32.2748018 L39.9511013,30.1154185 Z" id="Shape" fill="#FF4B55"></path>
                            </g>
                        </g>
                    </g>
                </g>
            </g>
        </g>
    </g>
</svg>